<svg width="34" height="35" viewBox="0 0 34 35" fill="none" xmlns="http://www.w3.org/2000/svg">
<circle cx="17" cy="17.1809" r="16" stroke="#FF0100" stroke-width="2"/>
<g clip-path="url(#clip0)">
<path d="M24.9519 13.8331C24.913 12.9815 24.7777 12.4 24.58 11.8912C24.3792 11.3574 24.0642 10.8738 23.6572 10.4742C23.2577 10.0672 22.774 9.75214 22.2402 9.55121C21.7313 9.35358 21.1499 9.21844 20.2983 9.17975C19.4452 9.14069 19.1726 9.13141 17 9.13141C14.8274 9.13141 14.5548 9.14069 13.7017 9.1795C12.8501 9.21844 12.2687 9.3537 11.7598 9.55145C11.226 9.75226 10.7424 10.0672 10.3428 10.4742C9.93579 10.8737 9.62073 11.3572 9.4198 11.8911C9.22217 12.4 9.08704 12.9815 9.04834 13.8329C9.00928 14.6862 9 14.9587 9 17.1313C9 19.304 9.00928 19.5766 9.04834 20.4297C9.08716 21.2812 9.22241 21.8627 9.42017 22.3716C9.62097 22.9053 9.93591 23.389 10.3429 23.7885C10.7424 24.1955 11.2261 24.5104 11.7599 24.7112C12.2687 24.9091 12.8502 25.0443 13.7018 25.0832C14.5551 25.1221 14.8275 25.1313 17.0001 25.1313C19.1727 25.1313 19.4453 25.1221 20.2985 25.0832C21.15 25.0443 21.7314 24.9091 22.2404 24.7112C23.3149 24.2957 24.1644 23.4462 24.58 22.3716C24.7778 21.8627 24.913 21.2812 24.9519 20.4297C24.9907 19.5765 25 19.304 25 17.1314C25 14.9587 24.9907 14.6862 24.9519 13.8331ZM23.5118 20.3642C23.4763 21.1442 23.3459 21.5678 23.2365 21.8497C22.9673 22.5474 22.4159 23.0988 21.7181 23.368C21.4363 23.4775 21.0127 23.6078 20.2327 23.6434C19.3893 23.6819 19.1362 23.69 17 23.69C14.8636 23.69 14.6107 23.6819 13.7672 23.6434C12.9873 23.6078 12.5637 23.4775 12.2817 23.368C11.9343 23.2397 11.62 23.0352 11.3619 22.7695C11.0962 22.5114 10.8917 22.1972 10.7634 21.8497C10.6539 21.5678 10.5236 21.1442 10.488 20.3642C10.4496 19.5207 10.4414 19.2676 10.4414 17.1315C10.4414 14.9953 10.4496 14.7424 10.488 13.8987C10.5237 13.1187 10.6539 12.6951 10.7634 12.4133C10.8917 12.0657 11.0963 11.7514 11.3619 11.4933C11.62 11.2276 11.9343 11.0231 12.2819 10.895C12.5637 10.7853 12.9873 10.6551 13.7673 10.6194C14.6108 10.581 14.8639 10.5728 17 10.5728H16.9999C19.136 10.5728 19.389 10.581 20.2327 10.6196C21.0127 10.6551 21.4362 10.7855 21.7181 10.895C22.0656 11.0233 22.3799 11.2277 22.6379 11.4933C22.9037 11.7514 23.1082 12.0657 23.2363 12.4133C23.3459 12.6951 23.4763 13.1187 23.5118 13.8987C23.5503 14.7422 23.5585 14.9953 23.5585 17.1314C23.5585 19.2676 23.5504 19.5206 23.5118 20.3642Z" fill="url(#paint0_linear)"/>
<path d="M16.9996 13.0233C14.7308 13.0233 12.8916 14.8626 12.8916 17.1314C12.8916 19.4002 14.7308 21.2394 16.9996 21.2394C19.2686 21.2394 21.1078 19.4002 21.1078 17.1314C21.1078 14.8626 19.2686 13.0233 16.9996 13.0233ZM16.9996 19.798C15.527 19.7979 14.333 18.6041 14.3331 17.1313C14.3331 15.6586 15.527 14.4647 16.9998 14.4647C18.4725 14.4648 19.6664 15.6586 19.6664 17.1313C19.6664 18.6041 18.4724 19.798 16.9996 19.798Z" fill="url(#paint1_linear)"/>
<path d="M22.2306 12.861C22.2306 13.3912 21.8008 13.821 21.2706 13.821C20.7404 13.821 20.3105 13.3912 20.3105 12.861C20.3105 12.3307 20.7404 11.9009 21.2706 11.9009C21.8008 11.9009 22.2306 12.3307 22.2306 12.861Z" fill="url(#paint2_linear)"/>
</g>
<defs>
<linearGradient id="paint0_linear" x1="10.3427" y1="23.7886" x2="23.6573" y2="10.474" gradientUnits="userSpaceOnUse">
<stop stop-color="#FFD600"/>
<stop offset="0.5" stop-color="#FF0100"/>
<stop offset="1" stop-color="#D800B9"/>
</linearGradient>
<linearGradient id="paint1_linear" x1="14.0948" y1="20.0362" x2="19.9046" y2="14.2265" gradientUnits="userSpaceOnUse">
<stop stop-color="#FF6400"/>
<stop offset="0.5" stop-color="#FF0100"/>
<stop offset="1" stop-color="#FD0056"/>
</linearGradient>
<linearGradient id="paint2_linear" x1="20.5918" y1="13.5398" x2="21.9494" y2="12.1822" gradientUnits="userSpaceOnUse">
<stop stop-color="#F30072"/>
<stop offset="1" stop-color="#E50097"/>
</linearGradient>
<clipPath id="clip0">
<rect width="16" height="16" fill="white" transform="translate(9 9.13141)"/>
</clipPath>
</defs>
</svg>
