<svg width="34" height="35" viewBox="0 0 34 35" fill="none" xmlns="http://www.w3.org/2000/svg">
<circle cx="17" cy="17.0845" r="16" stroke="#D20011" stroke-width="2"/>
<g clip-path="url(#clip0)">
<path d="M24.9519 13.7368C24.913 12.8853 24.7777 12.3037 24.58 11.7949C24.3792 11.2611 24.0642 10.7776 23.6572 10.3779C23.2577 9.97095 22.774 9.65588 22.2402 9.45496C21.7313 9.25732 21.1499 9.12219 20.2983 9.0835C19.4452 9.04443 19.1726 9.03516 17 9.03516C14.8274 9.03516 14.5548 9.04443 13.7017 9.08325C12.8501 9.12219 12.2687 9.25745 11.7598 9.4552C11.226 9.65601 10.7424 9.97095 10.3428 10.3779C9.93579 10.7775 9.62073 11.261 9.4198 11.7948C9.22217 12.3037 9.08704 12.8853 9.04834 13.7367C9.00928 14.59 9 14.8624 9 17.035C9 19.2078 9.00928 19.4803 9.04834 20.3335C9.08716 21.1849 9.22241 21.7665 9.42017 22.2754C9.62097 22.8091 9.93591 23.2927 10.3429 23.6923C10.7424 24.0992 11.2261 24.4142 11.7599 24.615C12.2687 24.8129 12.8502 24.948 13.7018 24.9869C14.5551 25.0259 14.8275 25.035 17.0001 25.035C19.1727 25.035 19.4453 25.0259 20.2985 24.9869C21.15 24.948 21.7314 24.8129 22.2404 24.615C23.3149 24.1995 24.1644 23.35 24.58 22.2754C24.7778 21.7665 24.913 21.1849 24.9519 20.3335C24.9907 19.4802 25 19.2078 25 17.0352C25 14.8624 24.9907 14.59 24.9519 13.7368ZM23.5118 20.2679C23.4763 21.048 23.3459 21.4716 23.2365 21.7534C22.9673 22.4512 22.4159 23.0026 21.7181 23.2717C21.4363 23.3812 21.0127 23.5116 20.2327 23.5471C19.3893 23.5857 19.1362 23.5938 17 23.5938C14.8636 23.5938 14.6107 23.5857 13.7672 23.5471C12.9873 23.5116 12.5637 23.3812 12.2817 23.2717C11.9343 23.1434 11.62 22.939 11.3619 22.6732C11.0962 22.4152 10.8917 22.101 10.7634 21.7534C10.6539 21.4716 10.5236 21.048 10.488 20.2679C10.4496 19.4244 10.4414 19.1714 10.4414 17.0353C10.4414 14.899 10.4496 14.6461 10.488 13.8025C10.5237 13.0225 10.6539 12.5989 10.7634 12.317C10.8917 11.9695 11.0963 11.6552 11.3619 11.3971C11.62 11.1313 11.9343 10.9269 12.2819 10.7987C12.5637 10.6891 12.9873 10.5588 13.7673 10.5232C14.6108 10.4847 14.8639 10.4766 17 10.4766H16.9999C19.136 10.4766 19.389 10.4847 20.2327 10.5233C21.0127 10.5588 21.4362 10.6892 21.7181 10.7987C22.0656 10.927 22.3799 11.1315 22.6379 11.3971C22.9037 11.6552 23.1082 11.9695 23.2363 12.317C23.3459 12.5989 23.4763 13.0225 23.5118 13.8025C23.5503 14.646 23.5585 14.899 23.5585 17.0352C23.5585 19.1714 23.5504 19.4243 23.5118 20.2679Z" fill="#D20011"/>
<path d="M16.9996 12.9268C14.7308 12.9268 12.8916 14.7661 12.8916 17.0349C12.8916 19.3037 14.7308 21.1429 16.9996 21.1429C19.2686 21.1429 21.1078 19.3037 21.1078 17.0349C21.1078 14.7661 19.2686 12.9268 16.9996 12.9268ZM16.9996 19.7015C15.527 19.7014 14.333 18.5076 14.3331 17.0348C14.3331 15.5621 15.527 14.3682 16.9998 14.3682C18.4725 14.3683 19.6664 15.5621 19.6664 17.0348C19.6664 18.5076 18.4724 19.7015 16.9996 19.7015Z" fill="#D20011"/>
<path d="M22.2306 12.7648C22.2306 13.2949 21.8008 13.7247 21.2706 13.7247C20.7404 13.7247 20.3105 13.2949 20.3105 12.7648C20.3105 12.2345 20.7404 11.8047 21.2706 11.8047C21.8008 11.8047 22.2306 12.2345 22.2306 12.7648Z" fill="#D20011"/>
</g>
<defs>
<clipPath id="clip0">
<rect width="16" height="16" fill="white" transform="translate(9 9.03516)"/>
</clipPath>
</defs>
</svg>
