<svg width="59" height="39" viewBox="0 0 59 39" fill="none" xmlns="http://www.w3.org/2000/svg">
<path d="M38.4757 38.7087H0V-0.000488281H38.4757V13.2444H36.6921V1.79394H1.7836V36.9141H36.6921V25.3783H38.4757V38.7087Z" fill="#D20011"/>
<path d="M7.86133 15.3784H9.64826V18.8057L12.206 15.3784H14.3505L11.4131 19.008L14.585 23.2443H12.3178L9.64826 19.5024V23.2443H7.86133V15.3784Z" fill="#D20011"/>
<path d="M19.2461 21.6226C20.6874 21.6226 21.4351 20.5979 21.4351 19.3113C21.4351 17.9158 20.4707 17 19.2461 17C17.9889 17 17.0571 17.9158 17.0571 19.3113C17.0571 20.6197 18.0324 21.6226 19.2461 21.6226ZM19.2461 15.3647C21.5542 15.3647 23.2773 16.8801 23.2773 19.3113C23.2773 21.6226 21.5542 23.2581 19.2461 23.2581C16.938 23.2581 15.2148 21.7426 15.2148 19.3113C15.2148 17.0982 16.8295 15.3647 19.2461 15.3647Z" fill="#D20011"/>
<path d="M30.7935 23.2441L27.0856 18.5245V23.2441H25.4102V15.3804H26.8397L30.548 20.1203L30.5455 15.3807H32.2208L32.2232 23.2441H30.7935Z" fill="#D20011"/>
<path d="M34.374 15.3784H40.852V17.064H38.5065V23.2443H36.7194V17.064H34.374V15.3784Z" fill="#D20011"/>
<path d="M49.5227 19.861C49.5227 22.2658 48.0038 23.2434 46.3285 23.2434C44.3181 23.2434 42.9219 22.0858 42.9219 19.7825V15.3818H44.709V19.4004C44.709 20.6252 45.0776 21.5578 46.3285 21.5578C47.4119 21.5578 47.7358 20.7601 47.7358 19.5014V15.3818H49.5227V19.861Z" fill="#D20011"/>
<path d="M53.457 17.09V18.8315H54.1047C54.7861 18.8315 55.3221 18.5845 55.3221 17.9214C55.3221 17.4832 55.1 17.0882 54.24 17.0882C53.9719 17.0882 53.8256 17.0787 53.457 17.09ZM51.6699 23.2434V15.3818C52.1055 15.3818 54.1047 15.3818 54.3281 15.3818C56.4614 15.3818 57.2209 16.4495 57.2209 17.899C57.2209 19.3598 56.3275 19.9553 55.903 20.1689L58.1629 23.2434H55.996L54.1159 20.5171H53.457V23.2434H51.6699Z" fill="#D20011"/>
</svg>
