<svg width="271" height="44" viewBox="0 0 271 44" fill="none" xmlns="http://www.w3.org/2000/svg">
<path fill-rule="evenodd" clip-rule="evenodd" d="M6.70915 2.85852C5.44676 2.85852 4.32843 2.93312 3.39073 3.04493C2.12817 3.23141 1.29855 3.49231 0.97393 3.82797C0.324613 4.49914 0 8.37735 0 15.425C0 21.876 0.288537 25.4558 0.901858 26.127C1.51493 26.761 3.06604 27.0966 5.55499 27.0966H6.31246C6.99777 27.0593 7.25031 27.0593 7.06992 27.0593C8.98172 26.8728 10.2081 26.3881 10.7492 25.6049C11.2181 24.9711 11.4346 23.5914 11.3985 21.4658C11.3985 20.6083 11.5067 20.1606 11.7592 20.1606C12.0839 20.1606 12.6248 20.9066 13.3823 22.3982C13.8514 23.5914 14.176 24.449 14.3563 24.9711C14.8974 26.4254 16.1598 27.1339 18.2159 27.0593C19.6588 27.0219 20.7048 26.9473 21.318 26.8728C22.7969 26.7237 23.5544 25.9405 23.5544 24.5609C23.5544 24.2626 23.5184 23.8897 23.4102 23.4423C22.797 20.6083 21.1739 17.5132 18.6127 14.1199C18.2881 13.7098 18.252 13.3741 18.4324 13.1503C21.282 8.71294 22.7248 5.87893 22.7248 4.64841C22.7248 3.8652 22.1837 3.4178 21.1376 3.2687C19.9834 3.2687 19.1538 3.26871 18.6488 3.23141C17.5666 3.19411 16.4484 4.20084 15.2942 6.28909C14.5367 7.85519 13.7791 9.42148 13.0216 10.9503C12.7692 11.3605 12.4807 11.5842 12.1199 11.5842C11.8674 11.6215 11.7232 11.3232 11.7232 10.7265C11.7232 10.2045 11.7232 9.42146 11.7592 8.37734C11.7953 7.33322 11.7953 6.55017 11.7953 6.02802C11.7953 3.90265 10.7132 2.85852 8.58503 2.85852H6.70915Z" fill="#DD0017"/>
<path fill-rule="evenodd" clip-rule="evenodd" d="M55.1856 8.89932C54.32 13.5978 53.851 18.3709 53.7428 23.2185C53.7068 24.5237 53.851 25.3813 54.1036 25.8659C54.4642 26.5745 55.2217 26.9101 56.3761 26.9474C57.4943 26.9847 58.2877 26.8356 58.7567 26.5372C59.3338 26.1643 59.6585 25.4558 59.7667 24.4117C59.875 23.3676 59.9471 22.5846 59.9832 22.0626C60.1635 19.7505 60.3799 18.5945 60.6325 18.5945C60.7046 18.5945 60.7767 18.6691 60.885 18.7811L62.9771 21.5776C63.5181 22.2862 64.0593 22.6591 64.6002 22.6591C65.1414 22.6591 65.6824 22.2862 66.2595 21.5404C67.3777 20.0861 68.0992 19.154 68.4238 18.7063C68.5319 18.52 68.6403 18.4082 68.7484 18.4082C68.9289 18.4082 69.1813 20.0861 69.578 23.4423C69.7584 24.8218 70.1913 25.7541 70.8766 26.3134C71.4899 26.7983 72.4999 27.0219 73.9066 27.0593L76.2151 27.0966C77.4777 27.1339 78.4156 26.9474 79.1009 26.5372C79.9305 26.0525 80.3272 25.1948 80.2552 24.0016C79.9305 18.8184 79.3172 13.7843 78.4156 8.89932C77.658 4.8721 76.143 2.85852 73.8346 2.85852H72.6081C71.0571 2.85852 69.7224 3.52977 68.6763 4.8348C67.1975 6.73648 66.3677 7.6688 66.1875 7.6688C66.007 7.7061 65.7907 7.55701 65.5742 7.29594L63.446 4.49915C62.6164 3.41781 61.5703 2.85852 60.3078 2.85852H59.5143C57.3861 2.85852 55.9431 4.8721 55.1856 8.89932Z" fill="#DD0017"/>
<path fill-rule="evenodd" clip-rule="evenodd" d="M120.611 2.59744C119.493 2.63474 118.483 3.15671 117.582 4.08903C116.968 4.72298 116.211 5.95344 115.237 7.81791C113.794 10.6147 112.423 13.7843 111.089 17.4013C109.682 21.1675 108.997 23.7777 109.033 25.232C109.069 26.4254 110.295 26.9473 112.784 26.8355C114.335 26.7237 114.804 26.2016 115.201 24.5982C115.489 23.4796 115.958 22.9201 116.572 22.8828C117.473 22.8456 118.122 22.8456 118.483 22.8828H120.864C121.405 22.8828 121.838 23.1812 122.127 23.7777C122.379 24.4862 122.559 25.0457 122.667 25.4185C123.064 26.5745 125.012 27.0966 128.547 27.0593C130.351 27.0219 131.685 26.8728 132.515 26.5745C133.958 26.0898 134.282 25.6049 134.138 24.0761C133.886 21.2421 132.371 16.9539 129.593 11.174C127.754 7.33322 126.383 4.98405 125.517 4.08903C124.471 3.00761 123.173 2.52294 121.694 2.56015L120.611 2.59744ZM118.339 14.8284C118.591 14.8284 119.169 15.9843 119.998 18.2963C120.179 18.8184 119.674 19.0793 118.411 19.0793C117.149 19.0793 116.608 18.8556 116.752 18.3709C117.473 16.0216 118.014 14.8284 118.339 14.8284Z" fill="#DD0017"/>
<path fill-rule="evenodd" clip-rule="evenodd" d="M159.785 19.6014C159.857 19.2657 159.893 18.9673 159.893 18.7063C159.893 17.7369 159.424 17.103 158.523 16.7673C158.054 16.581 157.188 16.5062 155.998 16.469C154.879 16.4317 154.158 17.103 153.905 18.4827C153.581 19.9743 152.679 20.72 151.2 20.72C149.505 20.72 148.675 18.781 148.675 14.8656C148.675 14.5299 148.711 14.0078 148.747 13.262C148.928 10.6891 149.649 9.30941 150.948 9.12301C152.715 8.86194 153.761 9.86877 154.122 12.1061C154.302 13.1129 154.951 13.5231 156.07 13.374C157.548 13.1875 158.378 13.0757 158.631 12.9638C159.569 12.6283 159.965 11.957 159.857 11.0247C159.533 8.19071 158.018 5.95336 155.348 4.35005C153.148 3.00756 150.659 2.3363 147.954 2.3363C144.094 2.3363 141.1 3.45503 138.936 5.65508C136.772 7.85513 135.689 10.9129 135.689 14.8656C135.689 18.9673 136.844 22.0997 139.116 24.2626C141.317 26.388 144.419 27.4321 148.423 27.4321C154.086 27.4321 157.873 24.8218 159.785 19.6014Z" fill="#DD0017"/>
<path fill-rule="evenodd" clip-rule="evenodd" d="M162.015 5.46855C162.123 3.75318 162.845 2.89563 164.18 2.89563H165.442C167.21 2.89563 168.039 3.67867 167.967 5.24477C167.859 7.96697 167.787 9.49577 167.823 9.79414C167.823 10.0552 167.895 10.167 168.003 10.167C168.111 10.167 168.292 10.0178 168.508 9.75685C169.121 9.1229 170.528 7.51951 172.728 4.94642C173.883 3.60409 175.145 2.93293 176.552 2.89563L179.185 2.85832C180.808 2.82102 181.963 3.19391 182.684 3.97696C183.514 4.8346 183.947 8.37716 183.983 14.5671C184.019 17.4011 183.911 20.5708 183.73 24.1132C183.622 26.015 182.937 26.9845 181.674 27.0218L180.267 27.0591C178.536 27.0964 177.598 26.3507 177.742 24.598C177.85 23.5912 177.887 22.4353 177.887 21.1673C177.887 20.1979 177.742 19.7131 177.49 19.7131C177.418 19.7131 177.346 19.7503 177.237 19.825C176.191 20.7199 174.243 22.5844 171.394 25.3811C170.276 26.4625 168.905 27.0218 167.246 27.0218H164.757C163.242 27.0218 162.34 26.3507 162.051 25.0082C161.871 24.1132 161.763 21.8013 161.763 18.1097C161.763 12.8517 161.835 8.63821 162.015 5.46855Z" fill="#DD0017"/>
<path fill-rule="evenodd" clip-rule="evenodd" d="M193.549 2.85852C192.287 2.85852 191.168 2.93312 190.231 3.04493C188.968 3.23141 188.138 3.49231 187.814 3.82797C187.164 4.49914 186.84 8.37735 186.84 15.425C186.84 21.876 187.128 25.4558 187.742 26.127C188.355 26.761 189.906 27.0966 192.395 27.0966H193.152C193.838 27.0593 194.09 27.0593 193.91 27.0593C195.822 26.8728 197.048 26.3881 197.589 25.6049C198.058 24.9711 198.274 23.5914 198.238 21.4658C198.238 20.6083 198.346 20.1606 198.599 20.1606C198.924 20.1606 199.465 20.9066 200.222 22.3982C200.691 23.5914 201.016 24.449 201.196 24.9711C201.737 26.4254 203 27.1339 205.056 27.0593C206.499 27.0219 207.545 26.9473 208.158 26.8728C209.637 26.7237 210.394 25.9405 210.394 24.5609C210.394 24.2626 210.358 23.8897 210.25 23.4423C209.637 20.6083 208.014 17.5132 205.452 14.1199C205.128 13.7098 205.092 13.3741 205.272 13.1503C208.122 8.71294 209.565 5.87893 209.565 4.64841C209.565 3.8652 209.024 3.4178 207.977 3.2687C206.823 3.2687 205.994 3.26871 205.489 3.23141C204.406 3.19411 203.288 4.20084 202.134 6.28909C201.377 7.85519 200.619 9.42148 199.861 10.9503C199.609 11.3605 199.321 11.5842 198.96 11.5842C198.707 11.6215 198.563 11.3232 198.563 10.7265C198.563 10.2045 198.563 9.42146 198.599 8.37734C198.635 7.33322 198.635 6.55017 198.635 6.02802C198.635 3.90265 197.553 2.85852 195.425 2.85852H193.549Z" fill="#DD0017"/>
<path fill-rule="evenodd" clip-rule="evenodd" d="M106.232 25.2133C106.196 26.2947 105.186 26.854 103.238 26.854C101.218 26.854 100.208 26.2574 100.208 25.1015L100.244 14.1383C100.244 11.7891 99.4867 10.5212 97.9716 10.3721C97.6469 10.3348 97.4306 10.3348 97.3223 10.3348C95.627 10.223 94.7973 11.9009 94.7613 15.2943C94.7613 16.5994 94.7973 18.091 94.8694 19.6944C94.9777 22.0064 95.0499 23.4606 95.0499 24.0945C95.086 25.2133 94.9777 25.9217 94.7613 26.2574C94.3645 26.8913 92.7773 27.1523 90.0361 27.0777C88.2686 27.0031 87.042 26.9658 86.3567 26.9286C84.1564 26.8168 83.002 24.9522 82.9299 21.3351C82.8938 19.2096 82.8578 18.0537 82.8938 17.9046V16.3385C82.8938 15.8341 82.91 15.3417 82.9422 14.8611V5.89842C82.9422 4.06295 84.3951 2.56062 86.1708 2.56062H93.9894C94.2429 2.54788 94.4999 2.54126 94.7613 2.54126C95.0191 2.54126 95.2744 2.54797 95.5271 2.56062H103.094C104.869 2.56062 106.322 4.06279 106.322 5.89842V13.4344C106.378 14.0531 106.408 14.6979 106.412 15.369C106.448 18.0537 106.448 19.5827 106.412 19.9928L106.232 25.2133Z" fill="#DD0017"/>
<path fill-rule="evenodd" clip-rule="evenodd" d="M41.0926 12.0032L30.2217 1.40143L34.108 16.0998L35.8703 15.0663C35.7885 14.8387 35.7442 14.5921 35.7442 14.3351C35.7442 13.1718 36.6566 12.2286 37.7824 12.2286C38.4239 12.2286 38.9955 12.5356 39.3693 13.0141L41.0926 12.0032Z" fill="#1F0E9E"/>
<path fill-rule="evenodd" clip-rule="evenodd" d="M34.333 16.5684L45.1743 27.141L41.298 12.4828L39.6358 13.4581C39.7542 13.7255 39.8204 14.0221 39.8204 14.3352C39.8204 15.4986 38.908 16.4423 37.7821 16.4423C37.0859 16.4423 36.4708 16.081 36.1035 15.5298L34.333 16.5684Z" fill="#DD0017"/>
<path fill-rule="evenodd" clip-rule="evenodd" d="M39.7089 1.99254C44.8454 2.84247 48.9019 7.03538 49.7235 12.3453L51.727 14.4165L49.6911 16.5211C49.1732 19.5562 47.5959 22.2135 45.3685 24.0706L44.455 20.6161C45.9159 18.9586 46.8069 16.7543 46.8069 14.3351C46.8069 9.18305 42.7668 5.00648 37.783 5.00648C37.0344 5.00648 36.3076 5.10118 35.6122 5.27878L33.0843 2.81365C33.9596 2.43189 34.8872 2.15337 35.8531 1.99321L37.7814 0L39.7089 1.99254ZM42.4558 25.868C41.6442 26.22 40.7876 26.4832 39.8974 26.6456L37.7814 28.8331L35.6647 26.6449C30.6839 25.7351 26.7559 21.674 25.8757 16.5251L23.8359 14.4165L25.8431 12.3415C26.3182 9.27701 27.8708 6.58465 30.0868 4.69286L31.0074 8.17438C29.608 9.81783 28.759 11.9737 28.759 14.3351C28.759 19.4873 32.7991 23.6638 37.783 23.6638C38.5208 23.6638 39.2378 23.5716 39.9241 23.3989L42.4558 25.868ZM37.783 13.3041C38.3337 13.3041 38.7803 13.7658 38.7803 14.3351C38.7803 14.9046 38.3337 15.3662 37.783 15.3662C37.2322 15.3662 36.7856 14.9046 36.7856 14.3351C36.7856 13.7658 37.2322 13.3041 37.783 13.3041Z" fill="#DD0017"/>
<path fill-rule="evenodd" clip-rule="evenodd" d="M217.732 27.6686C220.193 27.6686 221.424 26.3962 221.424 23.8514C221.424 21.137 220.193 19.7798 217.732 19.7798C215.147 19.7798 213.834 21.137 213.875 23.8514C213.916 26.3962 215.188 27.6686 217.732 27.6686Z" fill="#DD0017"/>
<path fill-rule="evenodd" clip-rule="evenodd" d="M5.90604 34.5029V32.6902H0.000976562V40.7155H2.27898V34.5029H5.90604ZM14.7177 40.7155V32.6902H12.4701L9.41239 37.431V32.6902H7.13439V40.7155H9.38255L12.4402 35.9747V40.7155H14.7177ZM21.6121 34.5029V40.7155H23.8901V32.6902H16.636V40.7155H18.914V34.5029H21.6121ZM33.1665 36.7338C33.1665 34.2392 31.6078 32.5043 29.2999 32.5043C26.9621 32.5043 25.4034 34.2552 25.4034 36.7029C25.4034 39.1505 26.977 40.9014 29.5251 40.9014C30.9339 40.9014 32.0876 40.3283 32.8666 39.2592L31.2935 38.1283C30.8885 38.7015 30.349 39.0579 29.6147 39.0579C28.5357 39.0579 27.8314 38.4693 27.6665 37.4619H33.1367C33.1665 37.276 33.1665 36.9351 33.1665 36.7338ZM29.2999 34.3479C30.1841 34.3479 30.8287 34.921 30.9183 35.866H27.6516C27.7865 34.8902 28.3858 34.3479 29.2999 34.3479ZM42.563 36.7029C42.563 34.0533 41.2743 32.5043 39.2359 32.5043C38.3666 32.5043 37.5577 32.8607 36.9579 33.4339V32.6902H34.6798V44H36.9579V39.9719C37.5577 40.545 38.3666 40.9014 39.2359 40.9014C41.2743 40.9014 42.563 39.3524 42.563 36.7029ZM38.5315 39.0579C37.992 39.0579 37.3479 38.7941 36.9579 38.3606V35.0452C37.3479 34.6116 37.992 34.3479 38.5315 34.3479C39.6858 34.3479 40.2551 35.2002 40.2551 36.7029C40.2551 38.2055 39.6858 39.0579 38.5315 39.0579ZM49.3075 39.0424L51.1954 36.2378V40.7155H53.4734V32.6902H51.2557L48.8128 36.5015L46.3699 32.6902H44.1516V40.7155H46.4296V36.2378L48.3181 39.0424H49.3075ZM60.0081 36.4552C59.4687 35.9593 58.7643 35.6955 57.8347 35.6955C56.276 35.6955 54.9574 36.6411 54.9574 38.2988C54.9574 39.9565 56.276 40.9014 57.8347 40.9014C58.7643 40.9014 59.4687 40.6383 60.0081 40.1424V40.7155H62.2259V35.9593C62.2259 33.8834 61.2969 32.5043 58.7338 32.5043C57.4751 32.5043 56.2162 32.9848 55.3918 33.7439L56.6512 34.9989C57.1153 34.6116 57.76 34.3479 58.4196 34.3479C59.5433 34.3479 60.0081 34.8748 60.0081 35.8352V36.4552ZM60.0081 38.6082C59.6031 39.0115 59.0487 39.2129 58.4495 39.2129C57.7003 39.2129 57.2653 38.8719 57.2653 38.2988C57.2653 37.7256 57.7003 37.3847 58.4495 37.3847C59.0487 37.3847 59.6031 37.5861 60.0081 37.9888V38.6082ZM71.9671 36.7029C71.9671 34.0533 70.6784 32.5043 68.6399 32.5043C67.7707 32.5043 66.9617 32.8607 66.3619 33.4339V32.6902H64.0839V44H66.3619V39.9719C66.9617 40.545 67.7707 40.9014 68.6399 40.9014C70.6784 40.9014 71.9671 39.3524 71.9671 36.7029ZM67.9356 39.0579C67.3961 39.0579 66.752 38.7941 66.3619 38.3606V35.0452C66.752 34.6116 67.3961 34.3479 67.9356 34.3479C69.0898 34.3479 69.6592 35.2002 69.6592 36.7029C69.6592 38.2055 69.0898 39.0579 67.9356 39.0579ZM73.5556 32.6902V40.7155H75.8336V38.7169L76.9879 37.3538L78.8459 40.7155H81.3188L78.3817 35.727L80.9591 32.6902H78.3668L75.8336 35.9747V32.6902H73.5556ZM89.7115 36.7338C89.7115 34.2392 88.1528 32.5043 85.8449 32.5043C83.5072 32.5043 81.9484 34.2552 81.9484 36.7029C81.9484 39.1505 83.5221 40.9014 86.0701 40.9014C87.4789 40.9014 88.6325 40.3283 89.4117 39.2592L87.8386 38.1283C87.4336 38.7015 86.894 39.0579 86.1598 39.0579C85.0808 39.0579 84.3764 38.4693 84.2115 37.4619H89.6816C89.7116 37.276 89.7115 36.9351 89.7115 36.7338ZM85.8449 34.3479C86.7291 34.3479 87.3738 34.921 87.4634 35.866H84.1966C84.3316 34.8902 84.9308 34.3479 85.8449 34.3479ZM93.1134 40.7155H95.3914V34.5029H97.9693V32.6902H90.536V34.5029H93.1134V40.7155ZM103.694 32.6902V40.7155H105.972V38.7169L107.126 37.3538L108.984 40.7155H111.457L108.52 35.727L111.097 32.6902H108.505L105.972 35.9747V32.6902H103.694ZM120.03 36.7029C120.03 34.2392 118.456 32.5043 116.059 32.5043C113.66 32.5043 112.087 34.2392 112.087 36.7029C112.087 39.1659 113.66 40.9014 116.059 40.9014C118.456 40.9014 120.03 39.1659 120.03 36.7029ZM117.722 36.7029C117.722 38.2055 117.108 39.0579 116.059 39.0579C115.009 39.0579 114.395 38.2055 114.395 36.7029C114.395 35.2002 115.009 34.3479 116.059 34.3479C117.108 34.3479 117.722 35.2002 117.722 36.7029ZM124.931 34.5029H127.088V40.7155H129.366V32.6902H122.652V37.772C122.652 38.6397 122.338 39.0579 121.513 39.0579C121.289 39.0579 121.094 39.0424 120.854 39.027V40.8396C121.124 40.886 121.438 40.9014 121.723 40.9014C124.016 40.9014 124.931 39.8786 124.931 37.7874V34.5029ZM132.873 40.7155L134.461 37.9888H135.736V40.7155H138.014V32.6902H134.147C132.153 32.6902 131.089 33.7902 131.089 35.3397C131.089 36.3619 131.524 37.1988 132.394 37.6324L130.475 40.7155H132.873ZM134.357 36.1606C133.757 36.1606 133.367 35.866 133.367 35.3397C133.367 34.813 133.757 34.5184 134.357 34.5184H135.736V36.1606H134.357ZM139.527 36.7029C139.527 39.1505 141.041 40.9014 143.453 40.9014C145.058 40.9014 146.301 40.1269 147.006 38.8874L145.252 38.0042C144.847 38.6706 144.353 39.0579 143.603 39.0579C142.45 39.0579 141.835 38.1437 141.835 36.7029C141.835 35.262 142.45 34.3479 143.603 34.3479C144.353 34.3479 144.847 34.7351 145.252 35.4015L147.006 34.5184C146.301 33.2788 145.058 32.5043 143.453 32.5043C141.041 32.5043 139.527 34.2552 139.527 36.7029ZM155.832 36.7029C155.832 34.2392 154.259 32.5043 151.861 32.5043C149.463 32.5043 147.889 34.2392 147.889 36.7029C147.889 39.1659 149.463 40.9014 151.861 40.9014C154.259 40.9014 155.832 39.1659 155.832 36.7029ZM153.524 36.7029C153.524 38.2055 152.91 39.0579 151.861 39.0579C150.812 39.0579 150.197 38.2055 150.197 36.7029C150.197 35.2002 150.812 34.3479 151.861 34.3479C152.91 34.3479 153.524 35.2002 153.524 36.7029ZM157.346 32.6902V40.7155H159.624V38.7169L160.778 37.3538L162.636 40.7155H165.109L162.172 35.727L164.749 32.6902H162.157L159.624 35.9747V32.6902H157.346ZM178.222 40.7155V32.6902H175.975L172.917 37.431V32.6902H170.639V40.7155H172.887L175.945 35.9747V40.7155H178.222ZM189.254 36.4552C188.714 35.9593 188.01 35.6955 187.08 35.6955C185.521 35.6955 184.203 36.6411 184.203 38.2988C184.203 39.9565 185.521 40.9014 187.08 40.9014C188.01 40.9014 188.714 40.6383 189.254 40.1424V40.7155H191.471V35.9593C191.471 33.8834 190.542 32.5043 187.979 32.5043C186.72 32.5043 185.462 32.9848 184.637 33.7439L185.897 34.9989C186.361 34.6116 187.005 34.3479 187.665 34.3479C188.789 34.3479 189.254 34.8748 189.254 35.8352V36.4552ZM189.254 38.6082C188.849 39.0115 188.294 39.2129 187.695 39.2129C186.946 39.2129 186.511 38.8719 186.511 38.2988C186.511 37.7256 186.946 37.3847 187.695 37.3847C188.294 37.3847 188.849 37.5861 189.254 37.9888V38.6082ZM197.001 40.7155C199.339 40.7155 200.178 39.8169 200.178 38.376C200.178 37.3538 199.594 36.7183 198.799 36.4552C199.414 36.176 199.774 35.6493 199.774 34.8593C199.774 33.5271 198.875 32.6902 196.897 32.6902H193.329V40.7155H197.001ZM197.646 35.107C197.646 35.6337 197.316 35.7734 196.717 35.7734H195.607V34.4411H196.717C197.316 34.4411 197.646 34.5647 197.646 35.107ZM197.946 38.1747C197.946 38.8411 197.511 38.9646 196.851 38.9646H195.607V37.3692H196.851C197.511 37.3692 197.946 37.5083 197.946 38.1747ZM203.58 40.7155H205.858V34.5029H208.436V32.6902H201.003V34.5029H203.58V40.7155ZM217.203 36.7029C217.203 34.2392 215.629 32.5043 213.232 32.5043C210.834 32.5043 209.26 34.2392 209.26 36.7029C209.26 39.1659 210.834 40.9014 213.232 40.9014C215.629 40.9014 217.203 39.1659 217.203 36.7029ZM214.895 36.7029C214.895 38.2055 214.281 39.0579 213.232 39.0579C212.183 39.0579 211.568 38.2055 211.568 36.7029C211.568 35.2002 212.183 34.3479 213.232 34.3479C214.281 34.3479 214.895 35.2002 214.895 36.7029ZM218.716 32.6902V40.7155H220.994V38.7169L222.148 37.3538L224.007 40.7155H226.479L223.542 35.727L226.12 32.6902H223.527L220.994 35.9747V32.6902H218.716ZM235.397 36.7029C235.397 34.0533 234.108 32.5043 232.069 32.5043C231.2 32.5043 230.391 32.8607 229.792 33.4339V32.6902H227.513V44H229.792V39.9719C230.391 40.545 231.2 40.9014 232.069 40.9014C234.108 40.9014 235.397 39.3524 235.397 36.7029ZM231.365 39.0579C230.826 39.0579 230.182 38.7941 229.792 38.3606V35.0452C230.182 34.6116 230.826 34.3479 231.365 34.3479C232.519 34.3479 233.089 35.2002 233.089 36.7029C233.089 38.2055 232.519 39.0579 231.365 39.0579ZM244.344 36.7338C244.344 34.2392 242.785 32.5043 240.477 32.5043C238.139 32.5043 236.581 34.2552 236.581 36.7029C236.581 39.1505 238.154 40.9014 240.702 40.9014C242.111 40.9014 243.265 40.3283 244.044 39.2592L242.471 38.1283C242.066 38.7015 241.526 39.0579 240.792 39.0579C239.713 39.0579 239.009 38.4693 238.844 37.4619H244.314C244.344 37.276 244.344 36.9351 244.344 36.7338ZM240.477 34.3479C241.361 34.3479 242.006 34.921 242.096 35.866H238.829C238.964 34.8902 239.563 34.3479 240.477 34.3479ZM245.453 36.7029C245.453 39.1505 246.967 40.9014 249.379 40.9014C250.983 40.9014 252.227 40.1269 252.931 38.8874L251.178 38.0042C250.773 38.6706 250.279 39.0579 249.529 39.0579C248.375 39.0579 247.761 38.1437 247.761 36.7029C247.761 35.262 248.375 34.3479 249.529 34.3479C250.279 34.3479 250.773 34.7351 251.178 35.4015L252.931 34.5184C252.227 33.2788 250.983 32.5043 249.379 32.5043C246.967 32.5043 245.453 34.2552 245.453 36.7029ZM261.578 36.7338C261.578 34.2392 260.019 32.5043 257.712 32.5043C255.374 32.5043 253.815 34.2552 253.815 36.7029C253.815 39.1505 255.389 40.9014 257.937 40.9014C259.345 40.9014 260.499 40.3283 261.278 39.2592L259.705 38.1283C259.3 38.7015 258.761 39.0579 258.026 39.0579C256.947 39.0579 256.243 38.4693 256.078 37.4619H261.548C261.578 37.276 261.578 36.9351 261.578 36.7338ZM257.712 34.3479C258.596 34.3479 259.24 34.921 259.33 35.866H256.063C256.198 34.8902 256.797 34.3479 257.712 34.3479ZM266.479 34.5029H268.637V40.7155H270.915V32.6902H264.201V37.772C264.201 38.6397 263.886 39.0579 263.062 39.0579C262.837 39.0579 262.642 39.0424 262.403 39.027V40.8396C262.672 40.886 262.987 40.9014 263.271 40.9014C265.564 40.9014 266.479 39.8786 266.479 37.7874V34.5029Z" fill="#1F0E9E"/>
<path fill-rule="evenodd" clip-rule="evenodd" d="M235.189 22.1989C235.189 21.3631 235.189 20.8181 235.154 20.5636C235.119 20.0186 235.189 19.7279 235.33 19.7279C235.576 19.7279 236.033 20.5636 236.701 22.2352L237.65 24.7425C238.178 26.1595 239.408 26.8502 241.411 26.7776C242.817 26.7414 243.837 26.6684 244.434 26.5958C245.876 26.4503 246.614 25.6874 246.614 24.3429C246.614 24.0522 246.579 23.6886 246.473 23.2528C245.981 20.9632 244.856 18.7829 243.063 16.7118C245.067 15.5854 246.087 13.6595 246.087 10.8978C246.087 5.77401 242.431 3.19379 235.119 3.19379H231.956C229.987 3.19379 228.054 3.37557 226.191 3.73881C225.101 3.95697 224.398 4.42943 224.011 5.15633C223.554 6.02838 223.344 9.37143 223.344 15.1491C223.344 21.145 223.66 24.561 224.293 25.3602C224.75 25.9782 225.488 26.3777 226.507 26.5595C227.035 26.6684 227.913 26.7414 229.108 26.7776C230.057 26.8139 230.55 26.8139 230.585 26.7776C232.835 26.5958 234.241 25.9782 234.768 24.9242C235.084 24.3429 235.225 23.4342 235.189 22.1989ZM240.603 10.8611C240.603 12.0968 239.794 12.7507 238.142 12.86C236.42 12.9689 235.506 12.2786 235.435 10.8611C235.4 10.0253 235.682 9.44402 236.35 9.15328C236.807 8.9352 237.509 8.86263 238.459 8.93521L239.021 8.9715C240.076 9.0445 240.603 9.66209 240.603 10.8611ZM270.798 5.04711C270.763 3.99327 269.778 3.44815 267.88 3.44815C265.912 3.44815 264.928 4.02957 264.928 5.15633L264.963 15.8398C264.963 18.129 264.224 19.3646 262.748 19.5098C262.432 19.5461 262.221 19.5461 262.115 19.5461C260.463 19.6554 259.655 18.0201 259.62 14.7133C259.62 13.4413 259.655 11.9879 259.725 10.4253C259.83 8.17243 259.901 6.75493 259.901 6.13724C259.936 5.0471 259.83 4.35683 259.62 4.02955C259.233 3.41186 257.686 3.1575 255.015 3.23008C253.292 3.303 252.097 3.33927 251.429 3.37556C249.285 3.48443 248.16 5.30147 248.09 8.82632C248.055 10.8978 248.02 12.0242 248.055 12.1694V13.6958C248.055 17.5839 249.039 20.7455 250.972 23.2165C253.046 25.8326 255.929 27.1409 259.62 27.1409C262.115 27.1409 264.365 26.5232 266.298 25.2876C269.392 23.3253 270.938 19.7641 270.974 14.6404C271.009 12.0242 271.009 10.5342 270.974 10.1346L270.798 5.04711Z" fill="#DD0017"/>
</svg>
