<svg width="639" height="101" viewBox="0 0 639 101" fill="none" xmlns="http://www.w3.org/2000/svg">
<path fill-rule="evenodd" clip-rule="evenodd" d="M16.6534 6.87981C13.6814 6.87981 11.0486 7.04936 8.84101 7.30346C5.86864 7.72728 3.9155 8.32023 3.15127 9.08311C1.62262 10.6085 0.858398 19.4226 0.858398 35.4399C0.858398 50.1014 1.53769 58.2374 2.98159 59.7627C4.42492 61.2037 8.0766 61.9664 13.9362 61.9664H15.7195C17.3329 61.8816 17.9274 61.8816 17.5027 61.8816C22.0035 61.4578 24.8908 60.3561 26.1646 58.5761C27.2686 57.1357 27.7782 54 27.6933 49.1692C27.6933 47.2202 27.9479 46.2028 28.5424 46.2028C29.3069 46.2028 30.5803 47.8981 32.3636 51.2881C33.4679 53.9999 34.2322 55.949 34.6567 57.1357C35.9305 60.4409 38.9025 62.0512 43.7431 61.8816C47.1399 61.7967 49.6025 61.6271 51.0462 61.4578C54.528 61.1189 56.3113 59.3389 56.3113 56.2034C56.3113 55.5255 56.2263 54.678 55.9717 53.6611C54.528 47.2201 50.7068 40.1859 44.6772 32.4739C43.9129 31.5417 43.828 30.7789 44.2527 30.2703C50.9614 20.1853 54.3581 13.7444 54.3581 10.9477C54.3581 9.16771 53.0843 8.1509 50.6215 7.81204C47.9042 7.81204 45.9512 7.81205 44.7621 7.72728C42.2144 7.64252 39.582 9.93054 36.8646 14.6766C35.0813 18.2359 33.2977 21.7956 31.5145 25.2702C30.9203 26.2024 30.241 26.7109 29.3916 26.7109C28.7971 26.7957 28.4577 26.1176 28.4577 24.7616C28.4577 23.5753 28.4577 21.7956 28.5424 19.4226C28.6274 17.0496 28.6274 15.2699 28.6274 14.0832C28.6274 9.25283 26.0799 6.87981 21.0696 6.87981H16.6534Z" fill="#DD0017"/>
<path fill-rule="evenodd" clip-rule="evenodd" d="M130.779 20.6089C128.741 31.2872 127.637 42.1353 127.382 53.1525C127.297 56.1188 127.637 58.0679 128.231 59.1694C129.081 60.7797 130.864 61.5424 133.582 61.6272C136.214 61.712 138.082 61.3731 139.186 60.695C140.545 59.8475 141.309 58.2374 141.564 55.8644C141.819 53.4914 141.988 51.7117 142.073 50.5254C142.498 45.2706 143.008 42.6435 143.602 42.6435C143.772 42.6435 143.942 42.813 144.197 43.0675L149.122 49.4233C150.396 51.0336 151.67 51.8811 152.943 51.8811C154.217 51.8811 155.491 51.0336 156.85 49.3387C159.482 46.0335 161.18 43.9149 161.945 42.8976C162.199 42.4741 162.454 42.2201 162.709 42.2201C163.134 42.2201 163.728 46.0335 164.662 53.6611C165.087 56.7964 166.106 58.9153 167.719 60.1864C169.163 61.2883 171.541 61.7967 174.853 61.8816L180.287 61.9664C183.26 62.0512 185.468 61.6272 187.081 60.695C189.034 59.5934 189.968 57.6441 189.799 54.9322C189.034 43.1523 187.591 31.7111 185.468 20.6089C183.684 11.4561 180.118 6.87981 174.683 6.87981H171.796C168.144 6.87981 165.002 8.40537 162.539 11.3713C159.058 15.6933 157.104 17.8123 156.68 17.8123C156.255 17.897 155.746 17.5582 155.236 16.9648L150.226 10.6085C148.273 8.15092 145.81 6.87981 142.838 6.87981H140.97C135.959 6.87981 132.562 11.4561 130.779 20.6089Z" fill="#DD0017"/>
<path fill-rule="evenodd" clip-rule="evenodd" d="M284.806 6.28646C282.174 6.37122 279.796 7.55752 277.673 9.67643C276.23 11.1172 274.446 13.9137 272.153 18.1511C268.757 24.5075 265.53 31.711 262.388 39.9316C259.076 48.491 257.462 54.4234 257.547 57.7286C257.632 60.4408 260.519 61.6271 266.379 61.373C270.03 61.1189 271.135 59.9323 272.069 56.2882C272.748 53.7458 273.852 52.4744 275.296 52.3896C277.418 52.3051 278.947 52.3051 279.796 52.3896H285.401C286.675 52.3896 287.694 53.0677 288.373 54.4234C288.968 56.0337 289.392 57.3051 289.647 58.1526C290.581 60.7797 295.167 61.9664 303.489 61.8816C307.735 61.7967 310.877 61.4578 312.83 60.7797C316.227 59.6782 316.991 58.5761 316.652 55.1015C316.057 48.6606 312.491 38.9148 305.952 25.7787C301.621 17.0496 298.394 11.7106 296.356 9.67643C293.893 7.21866 290.836 6.11713 287.354 6.2017L284.806 6.28646ZM279.457 34.0841C280.051 34.0841 281.41 36.7112 283.363 41.9656C283.787 43.1523 282.599 43.7452 279.626 43.7452C276.654 43.7452 275.38 43.2369 275.72 42.1353C277.418 36.796 278.692 34.0841 279.457 34.0841Z" fill="#DD0017"/>
<path fill-rule="evenodd" clip-rule="evenodd" d="M377.032 44.932C377.201 44.1691 377.286 43.4909 377.286 42.8976C377.286 40.6945 376.182 39.2537 374.059 38.4909C372.955 38.0674 370.917 37.8975 368.115 37.8129C365.482 37.7281 363.784 39.2537 363.189 42.3894C362.425 45.7794 360.302 47.4743 356.82 47.4743C352.829 47.4743 350.876 43.0675 350.876 34.1688C350.876 33.406 350.961 32.2193 351.046 30.5244C351.471 24.6768 353.169 21.5411 356.226 21.1175C360.387 20.5241 362.85 22.8124 363.699 27.8973C364.123 30.1855 365.652 31.1177 368.285 30.7789C371.766 30.3551 373.72 30.1009 374.314 29.8466C376.522 29.084 377.456 27.5584 377.201 25.4395C376.437 18.9986 372.87 13.9137 366.586 10.2698C361.406 7.21872 355.547 5.69315 349.178 5.69315C340.091 5.69315 333.043 8.2357 327.947 13.2358C322.852 18.2359 320.305 25.1854 320.305 34.1688C320.305 43.491 323.022 50.61 328.372 55.5255C333.552 60.3561 340.855 62.7291 350.281 62.7291C363.614 62.7291 372.531 56.7964 377.032 44.932Z" fill="#DD0017"/>
<path fill-rule="evenodd" clip-rule="evenodd" d="M382.282 12.8122C382.537 8.91361 384.235 6.96465 387.377 6.96465H390.35C394.511 6.96465 396.464 8.74428 396.294 12.3036C396.039 18.4904 395.87 21.965 395.954 22.6431C395.954 23.2364 396.124 23.4906 396.379 23.4906C396.634 23.4906 397.058 23.1513 397.568 22.5583C399.011 21.1175 402.323 17.4735 407.504 11.6255C410.221 8.57478 413.193 7.04941 416.505 6.96465L422.704 6.87983C426.526 6.79507 429.243 7.64255 430.941 9.42221C432.894 11.3714 433.914 19.4226 433.999 33.4908C434.083 39.9317 433.829 47.1355 433.404 55.1863C433.149 59.5087 431.536 61.712 428.564 61.7967L425.252 61.8817C421.176 61.9664 418.968 60.2715 419.307 56.2882C419.562 54 419.647 51.3729 419.647 48.4911C419.647 46.288 419.307 45.1861 418.713 45.1861C418.543 45.1861 418.373 45.2707 418.119 45.4406C415.656 47.4743 411.07 51.7117 404.361 58.0679C401.729 60.5256 398.502 61.7967 394.595 61.7967H388.736C385.169 61.7967 383.046 60.2716 382.367 57.2204C381.942 55.1863 381.688 49.9321 381.688 41.542C381.688 29.5922 381.858 20.016 382.282 12.8122Z" fill="#DD0017"/>
<path fill-rule="evenodd" clip-rule="evenodd" d="M456.519 6.87981C453.547 6.87981 450.914 7.04936 448.706 7.30346C445.734 7.72728 443.781 8.32023 443.017 9.08311C441.488 10.6085 440.724 19.4226 440.724 35.4399C440.724 50.1014 441.403 58.2374 442.847 59.7627C444.29 61.2037 447.942 61.9664 453.801 61.9664H455.585C457.198 61.8816 457.793 61.8816 457.368 61.8816C461.869 61.4578 464.756 60.3561 466.03 58.5761C467.134 57.1357 467.643 54 467.559 49.1692C467.559 47.2202 467.813 46.2028 468.408 46.2028C469.172 46.2028 470.446 47.8981 472.229 51.2881C473.333 53.9999 474.097 55.949 474.522 57.1357C475.796 60.4409 478.768 62.0512 483.608 61.8816C487.005 61.7967 489.468 61.6271 490.911 61.4578C494.393 61.1189 496.176 59.3389 496.176 56.2034C496.176 55.5255 496.092 54.678 495.837 53.6611C494.393 47.2201 490.572 40.1859 484.542 32.4739C483.778 31.5417 483.693 30.7789 484.118 30.2703C490.827 20.1853 494.223 13.7444 494.223 10.9477C494.223 9.16771 492.949 8.1509 490.487 7.81204C487.769 7.81204 485.816 7.81205 484.627 7.72728C482.08 7.64252 479.447 9.93054 476.73 14.6766C474.947 18.2359 473.163 21.7956 471.38 25.2702C470.785 26.2024 470.106 26.7109 469.257 26.7109C468.662 26.7957 468.323 26.1176 468.323 24.7616C468.323 23.5753 468.323 21.7956 468.408 19.4226C468.493 17.0496 468.493 15.2699 468.493 14.0832C468.493 9.25283 465.945 6.87981 460.935 6.87981H456.519Z" fill="#DD0017"/>
<path fill-rule="evenodd" clip-rule="evenodd" d="M250.953 57.6865C250.868 60.1443 248.491 61.4156 243.905 61.4156C239.149 61.4156 236.772 60.0595 236.772 57.4324L236.857 32.516C236.857 27.177 235.073 24.2955 231.507 23.9566C230.742 23.8718 230.233 23.8719 229.978 23.8719C225.987 23.6178 224.033 27.4311 223.949 35.1435C223.949 38.1095 224.034 41.4995 224.203 45.1437C224.458 50.3981 224.628 53.7032 224.628 55.144C224.713 57.6865 224.458 59.2966 223.949 60.0595C223.014 61.5003 219.278 62.0933 212.824 61.924C208.663 61.7544 205.776 61.6696 204.162 61.5851C198.982 61.331 196.264 57.0932 196.095 48.8726C196.01 44.0418 195.925 41.4147 196.01 41.0758V37.5165C196.01 36.3702 196.048 35.2512 196.124 34.159V13.7891C196.124 9.61762 199.544 6.20323 203.725 6.20323H222.131C222.728 6.17428 223.333 6.15923 223.949 6.15923C224.556 6.15923 225.157 6.17447 225.752 6.20323H243.565C247.746 6.20323 251.166 9.61724 251.166 13.7891V30.9164C251.296 32.3225 251.367 33.7879 251.378 35.3131C251.463 41.4147 251.463 44.8897 251.378 45.8219L250.953 57.6865Z" fill="#DD0017"/>
<path fill-rule="evenodd" clip-rule="evenodd" d="M97.5997 27.6636L72.0068 3.56854L81.1562 36.9738L85.3051 34.625C85.1125 34.1077 85.0083 33.5473 85.0083 32.9633C85.0083 30.3194 87.1563 28.1757 89.8067 28.1757C91.3168 28.1757 92.6626 28.8735 93.5425 29.9609L97.5997 27.6636Z" fill="#1F0E9E"/>
<path fill-rule="evenodd" clip-rule="evenodd" d="M81.6855 38.0388L107.209 62.0674L98.0827 28.7533L94.1696 30.9699C94.4482 31.5775 94.6042 32.2516 94.6042 32.9633C94.6042 35.6073 92.4562 37.7521 89.8056 37.7521C88.1664 37.7521 86.7185 36.931 85.8537 35.6782L81.6855 38.0388Z" fill="#DD0017"/>
<path fill-rule="evenodd" clip-rule="evenodd" d="M94.3405 4.91199C106.433 6.84365 115.983 16.373 117.917 28.4409L122.634 33.1482L117.841 37.9314C116.622 44.8295 112.908 50.8686 107.665 55.0895L105.514 47.2383C108.953 43.4711 111.051 38.4615 111.051 32.9633C111.051 21.2541 101.54 11.7619 89.8064 11.7619C88.0442 11.7619 86.3331 11.9771 84.6958 12.3807L78.7446 6.77814C80.8052 5.9105 82.9891 5.27751 85.263 4.9135L89.8026 0.383484L94.3405 4.91199ZM100.807 59.1743C98.8967 59.9744 96.8801 60.5727 94.7842 60.9416L89.8026 65.9132L84.8195 60.9401C73.0934 58.8724 63.8459 49.6425 61.7737 37.9405L56.9717 33.1482L61.697 28.4323C62.8156 21.4676 66.4707 15.3486 71.6877 11.0491L73.8551 18.9616C70.5606 22.6967 68.5618 27.5965 68.5618 32.9633C68.5618 44.6729 78.0731 54.1649 89.8064 54.1649C91.5435 54.1649 93.2314 53.9552 94.8472 53.5628L100.807 59.1743ZM89.8064 30.62C91.103 30.62 92.1543 31.6693 92.1543 32.9633C92.1543 34.2576 91.103 35.3066 89.8064 35.3066C88.5097 35.3066 87.4584 34.2576 87.4584 32.9633C87.4584 31.6693 88.5097 30.62 89.8064 30.62Z" fill="#DD0017"/>
<path fill-rule="evenodd" clip-rule="evenodd" d="M513.452 63.2665C519.247 63.2665 522.145 60.3746 522.145 54.591C522.145 48.4219 519.247 45.3373 513.452 45.3373C507.367 45.3373 504.276 48.4219 504.372 54.591C504.469 60.3746 507.463 63.2665 513.452 63.2665Z" fill="#DD0017"/>
<path fill-rule="evenodd" clip-rule="evenodd" d="M14.7623 78.7992V74.6795H0.860352V92.9187H6.22332V78.7992H14.7623ZM35.507 92.9187V74.6795H30.2156L23.0171 85.454V74.6795H17.6541V92.9187H22.9469L30.1454 82.1442V92.9187H35.507ZM51.7381 78.7992V92.9187H57.1011V74.6795H40.0233V92.9187H45.3863V78.7992H51.7381ZM78.9401 83.8694C78.9401 78.1999 75.2705 74.257 69.8371 74.257C64.3334 74.257 60.6638 78.2363 60.6638 83.7991C60.6638 89.3619 64.3685 93.3412 70.3673 93.3412C73.684 93.3412 76.4 92.0387 78.234 89.609L74.5307 87.0388C73.5771 88.3415 72.3071 89.1514 70.5784 89.1514C68.0381 89.1514 66.3799 87.8137 65.9917 85.5243H78.8698C78.9401 85.1018 78.9401 84.3269 78.9401 83.8694ZM69.8371 78.447C71.9188 78.447 73.4364 79.7495 73.6473 81.8971H65.9566C66.2743 79.6794 67.6852 78.447 69.8371 78.447ZM101.062 83.7991C101.062 77.7774 98.0279 74.257 93.2289 74.257C91.1824 74.257 89.278 75.0669 87.8659 76.3696V74.6795H82.5028V100.383H87.8659V91.2288C89.278 92.5313 91.1824 93.3412 93.2289 93.3412C98.0279 93.3412 101.062 89.8208 101.062 83.7991ZM91.5706 89.1514C90.3004 89.1514 88.7842 88.552 87.8659 87.5666V80.0318C88.7842 79.0462 90.3004 78.447 91.5706 78.447C94.288 78.447 95.6285 80.384 95.6285 83.7991C95.6285 87.2142 94.288 89.1514 91.5706 89.1514ZM116.94 89.1162L121.384 82.7421V92.9187H126.748V74.6795H121.526L115.775 83.3416L110.024 74.6795H104.802V92.9187H110.165V82.7421L114.611 89.1162H116.94ZM142.132 83.2362C140.862 82.1092 139.204 81.5097 137.015 81.5097C133.345 81.5097 130.241 83.6587 130.241 87.4262C130.241 91.1938 133.345 93.3412 137.015 93.3412C139.204 93.3412 140.862 92.7433 142.132 91.6163V92.9187H147.353V82.1091C147.353 77.3913 145.166 74.257 139.132 74.257C136.168 74.257 133.205 75.349 131.264 77.0742L134.229 79.9264C135.321 79.0462 136.839 78.447 138.392 78.447C141.038 78.447 142.132 79.6443 142.132 81.827V83.2362ZM142.132 88.1295C141.178 89.0461 139.873 89.5036 138.462 89.5036C136.699 89.5036 135.675 88.7287 135.675 87.4262C135.675 86.1235 136.699 85.3488 138.462 85.3488C139.873 85.3488 141.178 85.8064 142.132 86.7216V88.1295ZM170.286 83.7991C170.286 77.7774 167.252 74.257 162.453 74.257C160.407 74.257 158.502 75.0669 157.09 76.3696V74.6795H151.727V100.383H157.09V91.2288C158.502 92.5313 160.407 93.3412 162.453 93.3412C167.252 93.3412 170.286 89.8208 170.286 83.7991ZM160.795 89.1514C159.525 89.1514 158.009 88.552 157.09 87.5666V80.0318C158.009 79.0462 159.525 78.447 160.795 78.447C163.512 78.447 164.853 80.384 164.853 83.7991C164.853 87.2142 163.512 89.1514 160.795 89.1514ZM174.026 74.6795V92.9187H179.389V88.3765L182.106 85.2786L186.481 92.9187H192.302L185.388 81.5813L191.456 74.6795H185.353L179.389 82.1442V74.6795H174.026ZM212.061 83.8694C212.061 78.1999 208.391 74.257 202.958 74.257C197.454 74.257 193.785 78.2363 193.785 83.7991C193.785 89.3619 197.489 93.3412 203.488 93.3412C206.805 93.3412 209.521 92.0387 211.355 89.609L207.652 87.0388C206.698 88.3415 205.428 89.1514 203.699 89.1514C201.159 89.1514 199.501 87.8137 199.113 85.5243H211.99C212.061 85.1018 212.061 84.3269 212.061 83.8694ZM202.958 78.447C205.039 78.447 206.557 79.7495 206.768 81.8971H199.077C199.395 79.6794 200.806 78.447 202.958 78.447ZM220.07 92.9187H225.433V78.7992H231.502V74.6795H214.002V78.7992H220.07V92.9187ZM244.979 74.6795V92.9187H250.342V88.3765L253.059 85.2786L257.434 92.9187H263.255L256.341 81.5813L262.408 74.6795H256.305L250.342 82.1442V74.6795H244.979ZM283.437 83.7991C283.437 78.1999 279.732 74.257 274.088 74.257C268.442 74.257 264.738 78.1999 264.738 83.7991C264.738 89.3969 268.442 93.3412 274.088 93.3412C279.732 93.3412 283.437 89.3969 283.437 83.7991ZM278.004 83.7991C278.004 87.2142 276.558 89.1514 274.088 89.1514C271.618 89.1514 270.171 87.2142 270.171 83.7991C270.171 80.384 271.618 78.447 274.088 78.447C276.558 78.447 278.004 80.384 278.004 83.7991ZM294.975 78.7992H300.055V92.9187H305.418V74.6795H289.612V86.2289C289.612 88.2011 288.871 89.1514 286.93 89.1514C286.401 89.1514 285.942 89.1162 285.378 89.0811V93.2008C286.013 93.3062 286.754 93.3412 287.423 93.3412C292.822 93.3412 294.975 91.0168 294.975 86.2639V78.7992ZM313.673 92.9187L317.413 86.7216H320.413V92.9187H325.776V74.6795H316.673C311.98 74.6795 309.475 77.1795 309.475 80.7011C309.475 83.0242 310.498 84.9262 312.545 85.9117L308.029 92.9187H313.673ZM317.167 82.5667C315.755 82.5667 314.838 81.8971 314.838 80.7011C314.838 79.5039 315.755 78.8344 317.167 78.8344H320.413V82.5667H317.167ZM329.339 83.7991C329.339 89.3619 332.903 93.3412 338.582 93.3412C342.359 93.3412 345.287 91.581 346.946 88.764L342.817 86.7567C341.864 88.2712 340.701 89.1514 338.935 89.1514C336.219 89.1514 334.772 87.0738 334.772 83.7991C334.772 80.5244 336.219 78.447 338.935 78.447C340.701 78.447 341.864 79.327 342.817 80.8415L346.946 78.8344C345.287 76.0172 342.359 74.257 338.582 74.257C332.903 74.257 329.339 78.2363 329.339 83.7991ZM367.725 83.7991C367.725 78.1999 364.021 74.257 358.376 74.257C352.731 74.257 349.026 78.1999 349.026 83.7991C349.026 89.3969 352.731 93.3412 358.376 93.3412C364.021 93.3412 367.725 89.3969 367.725 83.7991ZM362.292 83.7991C362.292 87.2142 360.846 89.1514 358.376 89.1514C355.906 89.1514 354.459 87.2142 354.459 83.7991C354.459 80.384 355.906 78.447 358.376 78.447C360.846 78.447 362.292 80.384 362.292 83.7991ZM371.288 74.6795V92.9187H376.651V88.3765L379.368 85.2786L383.743 92.9187H389.564L382.65 81.5813L388.718 74.6795H382.615L376.651 82.1442V74.6795H371.288ZM420.437 92.9187V74.6795H415.146L407.947 85.454V74.6795H402.584V92.9187H407.877L415.076 82.1442V92.9187H420.437ZM446.407 83.2362C445.137 82.1092 443.479 81.5097 441.29 81.5097C437.621 81.5097 434.516 83.6587 434.516 87.4262C434.516 91.1938 437.621 93.3412 441.29 93.3412C443.479 93.3412 445.137 92.7433 446.407 91.6163V92.9187H451.628V82.1091C451.628 77.3913 449.441 74.257 443.407 74.257C440.443 74.257 437.48 75.349 435.539 77.0742L438.504 79.9264C439.597 79.0462 441.114 78.447 442.667 78.447C445.313 78.447 446.407 79.6443 446.407 81.827V83.2362ZM446.407 88.1295C445.454 89.0461 444.148 89.5036 442.737 89.5036C440.974 89.5036 439.95 88.7287 439.95 87.4262C439.95 86.1235 440.974 85.3488 442.737 85.3488C444.148 85.3488 445.454 85.8064 446.407 86.7216V88.1295ZM464.647 92.9187C470.152 92.9187 472.127 90.8764 472.127 87.6017C472.127 85.2786 470.751 83.8341 468.88 83.2362C470.328 82.6017 471.174 81.4046 471.174 79.6091C471.174 76.5814 469.058 74.6795 464.4 74.6795H456.002V92.9187H464.647ZM466.164 80.1721C466.164 81.3693 465.388 81.6867 463.977 81.6867H461.365V78.6588H463.977C465.388 78.6588 466.164 78.9395 466.164 80.1721ZM466.87 87.1441C466.87 88.6586 465.846 88.9394 464.294 88.9394H461.365V85.3136H464.294C465.846 85.3136 466.87 85.6296 466.87 87.1441ZM480.135 92.9187H485.498V78.7992H491.567V74.6795H474.067V78.7992H480.135V92.9187ZM512.207 83.7991C512.207 78.1999 508.502 74.257 502.857 74.257C497.212 74.257 493.507 78.1999 493.507 83.7991C493.507 89.3969 497.212 93.3412 502.857 93.3412C508.502 93.3412 512.207 89.3969 512.207 83.7991ZM506.773 83.7991C506.773 87.2142 505.327 89.1514 502.857 89.1514C500.388 89.1514 498.94 87.2142 498.94 83.7991C498.94 80.384 500.388 78.447 502.857 78.447C505.327 78.447 506.773 80.384 506.773 83.7991ZM515.769 74.6795V92.9187H521.132V88.3765L523.85 85.2786L528.224 92.9187H534.046L527.131 81.5813L533.199 74.6795H527.096L521.132 82.1442V74.6795H515.769ZM555.039 83.7991C555.039 77.7774 552.005 74.257 547.206 74.257C545.16 74.257 543.255 75.0669 541.843 76.3696V74.6795H536.48V100.383H541.843V91.2288C543.255 92.5313 545.16 93.3412 547.206 93.3412C552.005 93.3412 555.039 89.8208 555.039 83.7991ZM545.548 89.1514C544.278 89.1514 542.762 88.552 541.843 87.5666V80.0318C542.762 79.0462 544.278 78.447 545.548 78.447C548.265 78.447 549.606 80.384 549.606 83.7991C549.606 87.2142 548.265 89.1514 545.548 89.1514ZM576.103 83.8694C576.103 78.1999 572.433 74.257 567 74.257C561.496 74.257 557.827 78.2363 557.827 83.7991C557.827 89.3619 561.531 93.3412 567.53 93.3412C570.847 93.3412 573.563 92.0387 575.397 89.609L571.694 87.0388C570.74 88.3415 569.47 89.1514 567.741 89.1514C565.201 89.1514 563.543 87.8137 563.155 85.5243H576.033C576.103 85.1018 576.103 84.3269 576.103 83.8694ZM567 78.447C569.082 78.447 570.599 79.7495 570.81 81.8971H563.119C563.437 79.6794 564.848 78.447 567 78.447ZM578.713 83.7991C578.713 89.3619 582.278 93.3412 587.957 93.3412C591.734 93.3412 594.662 91.581 596.32 88.764L592.192 86.7567C591.239 88.2712 590.075 89.1514 588.31 89.1514C585.594 89.1514 584.147 87.0738 584.147 83.7991C584.147 80.5244 585.594 78.447 588.31 78.447C590.075 78.447 591.239 79.327 592.192 80.8415L596.32 78.8344C594.662 76.0172 591.734 74.257 587.957 74.257C582.278 74.257 578.713 78.2363 578.713 83.7991ZM616.677 83.8694C616.677 78.1999 613.007 74.257 607.574 74.257C602.07 74.257 598.401 78.2363 598.401 83.7991C598.401 89.3619 602.105 93.3412 608.104 93.3412C611.421 93.3412 614.137 92.0387 615.971 89.609L612.267 87.0388C611.314 88.3415 610.044 89.1514 608.315 89.1514C605.775 89.1514 604.117 87.8137 603.728 85.5243H616.607C616.677 85.1018 616.677 84.3269 616.677 83.8694ZM607.574 78.447C609.655 78.447 611.173 79.7495 611.384 81.8971H603.693C604.011 79.6794 605.422 78.447 607.574 78.447ZM628.214 78.7992H633.295V92.9187H638.658V74.6795H622.851V86.2289C622.851 88.2011 622.11 89.1514 620.169 89.1514C619.64 89.1514 619.182 89.1162 618.618 89.0811V93.2008C619.252 93.3062 619.993 93.3412 620.663 93.3412C626.061 93.3412 628.214 91.0168 628.214 86.2639V78.7992Z" fill="#1F0E9E"/>
<path fill-rule="evenodd" clip-rule="evenodd" d="M554.552 50.8353C554.552 48.9358 554.552 47.6971 554.469 47.1188C554.386 45.8801 554.552 45.2196 554.883 45.2196C555.462 45.2196 556.538 47.1188 558.11 50.9178L560.345 56.6162C561.586 59.8369 564.482 61.4066 569.2 61.2416C572.509 61.1591 574.909 60.9933 576.316 60.8283C579.71 60.4976 581.448 58.7639 581.448 55.7082C581.448 55.0474 581.365 54.2211 581.116 53.2306C579.957 48.0271 577.31 43.0717 573.089 38.3647C577.806 35.8047 580.206 31.4277 580.206 25.1511C580.206 13.5061 571.6 7.64195 554.386 7.64195H546.938C542.304 7.64195 537.753 8.0551 533.367 8.88065C530.801 9.37647 529.147 10.4502 528.236 12.1023C527.16 14.0842 526.664 21.6821 526.664 34.8132C526.664 48.4402 527.409 56.2038 528.898 58.0201C529.974 59.4247 531.712 60.3327 534.112 60.7458C535.353 60.9933 537.422 61.1591 540.235 61.2416C542.47 61.3241 543.629 61.3241 543.711 61.2416C549.008 60.8283 552.318 59.4246 553.559 57.0294C554.304 55.7082 554.635 53.6428 554.552 50.8353ZM567.296 25.0677C567.296 27.8761 565.393 29.3622 561.504 29.6106C557.448 29.8581 555.297 28.2892 555.131 25.0677C555.048 23.1682 555.71 21.847 557.283 21.1863C558.359 20.6906 560.014 20.5257 562.248 20.6906L563.572 20.7731C566.055 20.939 567.296 22.3426 567.296 25.0677ZM638.382 11.8541C638.3 9.45895 635.982 8.22006 631.514 8.22006C626.879 8.22006 624.562 9.54145 624.562 12.1023L624.645 36.3828C624.645 41.5856 622.907 44.3938 619.431 44.7237C618.686 44.8062 618.19 44.8062 617.942 44.8062C614.053 45.0546 612.149 41.3381 612.067 33.8227C612.067 30.9318 612.149 27.6287 612.314 24.0772C612.562 18.9571 612.728 15.7355 612.728 14.3316C612.811 11.854 612.562 10.2852 612.067 9.54141C611.156 8.13757 607.514 7.55948 601.225 7.72444C597.171 7.89016 594.357 7.9726 592.785 8.05508C587.736 8.30252 585.088 12.4321 584.923 20.4432C584.84 25.1511 584.757 27.7111 584.84 28.0411V31.5101C584.84 40.3467 587.158 47.5322 591.709 53.1481C596.591 59.0938 603.377 62.0672 612.067 62.0672C617.942 62.0672 623.238 60.6633 627.79 57.8551C635.072 53.3954 638.713 45.3018 638.796 33.657C638.879 27.7112 638.879 24.3246 638.796 23.4166L638.382 11.8541Z" fill="#DD0017"/>
</svg>
