<svg width="34" height="35" viewBox="0 0 34 35" fill="none" xmlns="http://www.w3.org/2000/svg">
<g clip-path="url(#clip0)">
<path d="M17.0001 17.3809C15.0001 17.3809 13.4001 15.7809 13.4001 13.7809C13.4001 11.7809 15.0001 10.1809 17.0001 10.1809C19.0001 10.1809 20.6001 11.7809 20.6001 13.7809C20.6001 15.7809 19.0001 17.3809 17.0001 17.3809ZM17.0001 12.2809C16.2001 12.2809 15.5001 12.9809 15.5001 13.7809C15.5001 14.5809 16.2001 15.2809 17.0001 15.2809C17.8001 15.2809 18.5001 14.5809 18.5001 13.7809C18.5001 12.9809 17.8001 12.2809 17.0001 12.2809ZM20.5001 19.4809C19.9001 19.8809 19.2001 20.1809 18.4001 20.3809L20.4001 22.3809C20.8001 22.7809 20.8001 23.4809 20.4001 23.8809C20.0001 24.2809 19.3001 24.2809 18.9001 23.8809L16.9001 21.8809L14.9001 23.8809C14.8001 24.0809 14.6001 24.1809 14.3001 24.1809C14.0001 24.1809 13.8001 24.0809 13.6001 23.8809C13.2001 23.4809 13.2001 22.7809 13.6001 22.3809L15.6001 20.3809C14.8001 20.1809 14.1001 19.8809 13.5001 19.4809C13.0001 19.1809 12.8001 18.4809 13.2001 17.9809C13.5001 17.4809 14.2001 17.3809 14.6001 17.6809C16.1001 18.5809 17.9001 18.5809 19.4001 17.6809C19.9001 17.3809 20.5001 17.4809 20.8001 17.9809C21.2001 18.4809 21.0001 19.1809 20.5001 19.4809Z" fill="#EB8230"/>
</g>
<circle cx="17" cy="17.1809" r="16" stroke="#EB8230" stroke-width="2"/>
<defs>
<clipPath id="clip0">
<rect width="8" height="14" fill="white" transform="translate(13 10.1809)"/>
</clipPath>
</defs>
</svg>
