<svg width="34" height="35" viewBox="0 0 34 35" fill="none" xmlns="http://www.w3.org/2000/svg">
<g clip-path="url(#clip0)">
<path d="M17.0001 17.2845C15.0001 17.2845 13.4001 15.6845 13.4001 13.6845C13.4001 11.6845 15.0001 10.0845 17.0001 10.0845C19.0001 10.0845 20.6001 11.6845 20.6001 13.6845C20.6001 15.6845 19.0001 17.2845 17.0001 17.2845ZM17.0001 12.1845C16.2001 12.1845 15.5001 12.8845 15.5001 13.6845C15.5001 14.4845 16.2001 15.1845 17.0001 15.1845C17.8001 15.1845 18.5001 14.4845 18.5001 13.6845C18.5001 12.8845 17.8001 12.1845 17.0001 12.1845ZM20.5001 19.3845C19.9001 19.7845 19.2001 20.0845 18.4001 20.2845L20.4001 22.2845C20.8001 22.6845 20.8001 23.3845 20.4001 23.7845C20.0001 24.1845 19.3001 24.1845 18.9001 23.7845L16.9001 21.7845L14.9001 23.7845C14.8001 23.9845 14.6001 24.0845 14.3001 24.0845C14.0001 24.0845 13.8001 23.9845 13.6001 23.7845C13.2001 23.3845 13.2001 22.6845 13.6001 22.2845L15.6001 20.2845C14.8001 20.0845 14.1001 19.7845 13.5001 19.3845C13.0001 19.0845 12.8001 18.3845 13.2001 17.8845C13.5001 17.3845 14.2001 17.2845 14.6001 17.5845C16.1001 18.4845 17.9001 18.4845 19.4001 17.5845C19.9001 17.2845 20.5001 17.3845 20.8001 17.8845C21.2001 18.3845 21.0001 19.0845 20.5001 19.3845Z" fill="#D20011"/>
</g>
<circle cx="17" cy="17.0845" r="16" stroke="#D20011" stroke-width="2"/>
<defs>
<clipPath id="clip0">
<rect width="8" height="14" fill="white" transform="translate(13 10.0845)"/>
</clipPath>
</defs>
</svg>
