<svg width="34" height="35" viewBox="0 0 34 35" fill="none" xmlns="http://www.w3.org/2000/svg">
<g clip-path="url(#clip0)">
<path d="M21.4 17.0809C21 16.5809 20.4 16.1809 19.7 16.0809V15.9809C20.2 15.7809 20.6 15.3809 20.8 14.8809C21.1 14.3809 21.3 13.8809 21.3 13.1809C21.3 12.6809 21.2 12.1809 21 11.6809C20.8 11.2809 20.5 10.8809 20.1 10.6809C19.7 10.4809 19.3 10.3809 18.9 10.2809C18.4 10.1809 17.8 10.1809 17 10.1809H13V23.1809H17.5C18.3 23.1809 18.9 23.0809 19.4 22.9809C19.9 22.7809 20.4 22.5809 20.8 22.1809C21.2 21.8809 21.4 21.4809 21.7 20.9809C21.9 20.3809 22 19.8809 22 19.1809C22 18.2809 21.8 17.5809 21.4 17.0809ZM18.3 14.5809C18.2 14.7809 18 14.9809 17.8 15.0809C17.6 15.1809 17.4 15.2809 17.2 15.2809H15.8V12.5809H17.1C17.4 12.5809 17.6 12.6809 17.8 12.7809C18 12.7809 18.1 12.9809 18.2 13.1809C18.3 13.3809 18.3 13.5809 18.3 13.7809C18.4 14.1809 18.3 14.3809 18.3 14.5809ZM18.9 19.9809C18.8 20.1809 18.6 20.3809 18.3 20.5809C18 20.6809 17.7 20.7809 17.4 20.7809H15.8V17.5809H17.5C17.8 17.5809 18 17.6809 18.2 17.6809C18.5 17.7809 18.7 17.9809 18.9 18.1809C19 18.3809 19.1 18.7809 19.1 19.1809C19.1 19.4809 19 19.7809 18.9 19.9809Z" fill="#406087"/>
</g>
<circle cx="17" cy="17.1809" r="16" stroke="#406087" stroke-width="2"/>
<defs>
<clipPath id="clip0">
<rect width="9" height="13" fill="white" transform="translate(13 10.1809)"/>
</clipPath>
</defs>
</svg>
