<svg width="34" height="35" viewBox="0 0 34 35" fill="none" xmlns="http://www.w3.org/2000/svg">
<g clip-path="url(#clip0)">
<path d="M21.4 16.9845C21 16.4845 20.4 16.0845 19.7 15.9845V15.8845C20.2 15.6845 20.6 15.2845 20.8 14.7845C21.1 14.2845 21.3 13.7845 21.3 13.0845C21.3 12.5845 21.2 12.0845 21 11.5845C20.8 11.1845 20.5 10.7845 20.1 10.5845C19.7 10.3845 19.3 10.2845 18.9 10.1845C18.4 10.0845 17.8 10.0845 17 10.0845H13V23.0845H17.5C18.3 23.0845 18.9 22.9845 19.4 22.8845C19.9 22.6845 20.4 22.4845 20.8 22.0845C21.2 21.7845 21.4 21.3845 21.7 20.8845C21.9 20.2845 22 19.7845 22 19.0845C22 18.1845 21.8 17.4845 21.4 16.9845ZM18.3 14.4845C18.2 14.6845 18 14.8845 17.8 14.9845C17.6 15.0845 17.4 15.1845 17.2 15.1845H15.8V12.4845H17.1C17.4 12.4845 17.6 12.5845 17.8 12.6845C18 12.6845 18.1 12.8845 18.2 13.0845C18.3 13.2845 18.3 13.4845 18.3 13.6845C18.4 14.0845 18.3 14.2845 18.3 14.4845ZM18.9 19.8845C18.8 20.0845 18.6 20.2845 18.3 20.4845C18 20.5845 17.7 20.6845 17.4 20.6845H15.8V17.4845H17.5C17.8 17.4845 18 17.5845 18.2 17.5845C18.5 17.6845 18.7 17.8845 18.9 18.0845C19 18.2845 19.1 18.6845 19.1 19.0845C19.1 19.3845 19 19.6845 18.9 19.8845Z" fill="#D20011"/>
</g>
<circle cx="17" cy="17.0845" r="16" stroke="#D20011" stroke-width="2"/>
<defs>
<clipPath id="clip0">
<rect width="9" height="13" fill="white" transform="translate(13 10.0845)"/>
</clipPath>
</defs>
</svg>
