<svg width="34" height="35" viewBox="0 0 34 35" fill="none" xmlns="http://www.w3.org/2000/svg">
<path d="M24.7665 13.8743C24.7665 13.8743 24.6115 12.785 24.1365 12.3054C23.5337 11.6756 22.8581 11.6726 22.5485 11.6361C20.3306 11.4761 17.0036 11.4761 17.0036 11.4761H16.9966C16.9966 11.4761 13.6697 11.4761 11.4517 11.6361C11.1416 11.6726 10.4665 11.6756 9.86323 12.3054C9.38823 12.7851 9.23369 13.8743 9.23369 13.8743C9.23369 13.8743 9.0752 15.1538 9.0752 16.4327V17.6321C9.0752 18.9114 9.23369 20.1904 9.23369 20.1904C9.23369 20.1904 9.38823 21.2797 9.86323 21.7593C10.4665 22.3892 11.2585 22.3694 11.6112 22.4351C12.8792 22.5567 17.0001 22.5942 17.0001 22.5942C17.0001 22.5942 20.3306 22.5893 22.5485 22.4293C22.8581 22.3922 23.5337 22.3893 24.1365 21.7595C24.6115 21.2797 24.7665 20.1906 24.7665 20.1906C24.7665 20.1906 24.925 18.9116 24.925 17.6321V16.4327C24.925 15.1538 24.7665 13.8743 24.7665 13.8743L24.7665 13.8743ZM15.3636 19.0855L15.3631 14.644L19.6455 16.8724L15.3636 19.0855Z" fill="#D20011"/>
<circle cx="17" cy="17.0845" r="16" stroke="#D20011" stroke-width="2"/>
</svg>
