<svg width="34" height="35" viewBox="0 0 34 35" fill="none" xmlns="http://www.w3.org/2000/svg">
<path d="M24.7665 13.9706C24.7665 13.9706 24.6115 12.8813 24.1365 12.4017C23.5337 11.7719 22.8581 11.7689 22.5485 11.7324C20.3306 11.5724 17.0036 11.5724 17.0036 11.5724H16.9966C16.9966 11.5724 13.6697 11.5724 11.4517 11.7324C11.1416 11.7689 10.4665 11.7719 9.86323 12.4017C9.38823 12.8814 9.23369 13.9706 9.23369 13.9706C9.23369 13.9706 9.0752 15.2501 9.0752 16.5289V17.7284C9.0752 19.0077 9.23369 20.2867 9.23369 20.2867C9.23369 20.2867 9.38823 21.376 9.86323 21.8556C10.4665 22.4854 11.2585 22.4657 11.6112 22.5314C12.8792 22.6529 17.0001 22.6905 17.0001 22.6905C17.0001 22.6905 20.3306 22.6856 22.5485 22.5255C22.8581 22.4885 23.5337 22.4856 24.1365 21.8557C24.6115 21.376 24.7665 20.2869 24.7665 20.2869C24.7665 20.2869 24.925 19.0079 24.925 17.7284V16.5289C24.925 15.2501 24.7665 13.9706 24.7665 13.9706L24.7665 13.9706ZM15.3636 19.1817L15.3631 14.7403L19.6455 16.9687L15.3636 19.1817Z" fill="#ED0215"/>
<circle cx="17" cy="17.1809" r="16" stroke="#ED0215" stroke-width="2"/>
</svg>
