<svg width="101" height="101" viewBox="0 0 101 101" fill="none" xmlns="http://www.w3.org/2000/svg">
<g clip-path="url(#clip0)">
<path d="M62.5683 25.7416H37.4486C31.3389 25.7416 26.3691 20.7718 26.3691 14.6622V11.9675C26.3691 5.85861 31.3389 0.888062 37.4486 0.888062H62.5683C68.6772 0.888062 73.6478 5.85861 73.6478 11.9675V14.6622C73.6478 20.7718 68.6772 25.7416 62.5683 25.7416Z" fill="#837AC1"/>
<path d="M62.5683 0.888062H50.0088V25.7416H62.5683C68.6772 25.7416 73.6477 20.7718 73.6477 14.6622V11.9675C73.6477 5.85861 68.6772 0.888062 62.5683 0.888062Z" fill="#200F9C"/>
<path d="M70.7074 19.825H29.3111C23.5486 19.825 18.8604 24.5132 18.8604 30.2757V80.3032C18.8604 81.9374 20.1848 83.2618 21.819 83.2618H78.1995C79.8337 83.2618 81.1582 81.9374 81.1582 80.3032V30.2757C81.1582 24.5132 76.4699 19.825 70.7074 19.825Z" fill="#BBE7FF"/>
<path d="M70.7066 19.825H50.0088V83.2618H78.1986C79.8321 83.2618 81.1573 81.9374 81.1573 80.3032V30.2757C81.1573 24.5132 76.4691 19.825 70.7066 19.825Z" fill="#80D0FF"/>
<path d="M77.8741 22.7012C76.8067 21.4637 74.939 21.3256 73.7016 22.393L50.0085 42.8314L26.3169 22.3945C25.0794 21.3271 23.2118 21.4652 22.1444 22.702C21.077 23.9395 21.2144 25.8079 22.4519 26.8752L45.4789 46.7391L27.3949 62.3382C26.1582 63.4055 26.0201 65.274 27.0875 66.5115C27.6727 67.1897 28.4982 67.5376 29.329 67.5376C30.0134 67.5376 30.7015 67.3011 31.26 66.8189L50.0085 50.6461L68.757 66.8189C69.3162 67.3011 70.0036 67.5376 70.688 67.5376C71.5188 67.5376 72.3443 67.1897 72.9295 66.5115C73.9968 65.274 73.8595 63.4055 72.622 62.3382L54.538 46.7391L77.5666 26.8737C78.8041 25.8064 78.9414 23.9387 77.8741 22.7012Z" fill="#837AC1"/>
<path d="M73.7011 22.393L50.0088 42.8314V50.6469L68.7565 66.8189C69.3157 67.3011 70.0031 67.5376 70.6875 67.5376C71.5183 67.5376 72.3438 67.1897 72.929 66.5115C73.9964 65.274 73.859 63.4055 72.6216 62.3382L54.5376 46.7391L77.5662 26.8737C78.8037 25.8064 78.941 23.9387 77.8736 22.7012C76.8063 21.4637 74.9386 21.3256 73.7011 22.393Z" fill="#200F9C"/>
<path d="M50.0077 37.4335C44.6015 37.4335 40.2031 41.8319 40.2031 47.2381C40.2031 52.6443 44.6022 57.0426 50.0077 57.0426C55.4146 57.0426 59.813 52.6443 59.813 47.2381C59.813 41.8319 55.4146 37.4335 50.0077 37.4335Z" fill="#FFB0B0"/>
<path d="M50.0088 37.4335V57.0426C55.4142 57.0418 59.8126 52.6435 59.8126 47.2381C59.8126 41.8326 55.4142 37.4343 50.0088 37.4335Z" fill="#F97777"/>
<path d="M58.2692 64.9237H41.7485C33.2684 64.9237 26.3691 71.823 26.3691 80.303C26.3691 81.9373 27.6944 83.2617 29.3278 83.2617H70.6898C72.3233 83.2617 73.6485 81.9373 73.6485 80.303C73.6485 71.823 66.7492 64.9237 58.2692 64.9237Z" fill="#837AC1"/>
<path d="M58.2684 64.9237H50.0088V83.2617H70.689C72.3232 83.2617 73.6477 81.9373 73.6477 80.303C73.6477 71.823 66.7484 64.9237 58.2684 64.9237Z" fill="#200F9C"/>
<path d="M76.4489 57.5736H70.6894C69.0552 57.5736 67.7307 58.8981 67.7307 60.5323V77.3444H32.2861V60.5323C32.2861 58.8981 30.9616 57.5736 29.3274 57.5736H23.5688C16.8694 57.5736 11.4189 63.024 11.4189 69.7234V85.4812C11.4189 93.9765 18.3304 100.888 26.8265 100.888H73.1903C81.6864 100.888 88.5979 93.9765 88.5979 85.4812V69.7234C88.5979 63.024 83.1475 57.5736 76.4489 57.5736Z" fill="#D0F1FF"/>
<path d="M76.4485 57.5736H70.689C69.0548 57.5736 67.7303 58.8981 67.7303 60.5323V77.3444H50.0088V100.888H73.1907C81.686 100.888 88.5975 93.9765 88.5975 85.4812V69.7227C88.5975 63.024 83.1471 57.5736 76.4485 57.5736Z" fill="#BBE7FF"/>
</g>
<defs>
<clipPath id="clip0">
<rect width="100" height="100" fill="white" transform="translate(0.0908203 0.888062)"/>
</clipPath>
</defs>
</svg>
