<svg width="102" height="101" viewBox="0 0 102 101" fill="none" xmlns="http://www.w3.org/2000/svg">
<g clip-path="url(#clip0)">
<path d="M16.3646 44.6266C14.6777 44.6266 13.3098 43.2686 13.3098 41.5931V36.2739C13.3098 32.8293 10.4871 30.0277 7.01801 30.0277H3.90248C2.2156 30.0277 0.847656 28.6697 0.847656 26.9943C0.847656 25.3196 2.2156 23.9616 3.90248 23.9616H7.01801C13.8562 23.9616 19.4202 29.4845 19.4202 36.2739V41.5931C19.4202 43.2686 18.0523 44.6266 16.3646 44.6266Z" fill="#837AC1"/>
<path d="M89.4325 12.8685C81.6506 5.14297 71.3034 0.888062 60.2984 0.888062C58.7214 0.888062 57.4434 2.15683 57.4434 3.72238V41.7923C57.4434 43.3578 58.7214 44.6266 60.2984 44.6266H98.6462C100.223 44.6266 101.501 40.126 101.501 38.5605C101.501 27.6344 97.2152 20.594 89.4325 12.8685Z" fill="#BBE7FF"/>
<path d="M101.501 51.4076V41.5932C101.501 39.9185 100.133 38.5605 98.4457 38.5605H13.3096V51.5511C13.3096 66.0156 25.1208 77.7405 39.6902 77.7405H75.1199H75.1537C82.5576 77.6596 90.072 74.1806 95.2541 68.4357C99.7629 63.4377 102.034 57.2411 101.501 51.4076Z" fill="#FFB0B0"/>
<path d="M29.9478 60.5972C18.8006 60.5972 9.73145 69.6007 9.73145 80.6671C9.73145 91.7336 18.8006 100.736 29.9478 100.736C41.095 100.736 50.1642 91.7336 50.1642 80.6671C50.1642 69.6007 41.095 60.5972 29.9478 60.5972Z" fill="#837AC1"/>
<path d="M101.502 38.5605H57.4053V77.7405H75.1202H75.154C82.5578 77.6596 90.0723 74.1806 95.2543 68.4357C99.7631 63.4377 102.034 57.2411 101.502 51.4076V38.5605Z" fill="#F97777"/>
<path d="M50.1646 80.6671C50.1646 69.6007 41.0955 60.5972 29.9482 60.5972V100.737C41.0955 100.736 50.1646 91.7336 50.1646 80.6671Z" fill="#200F9C"/>
<path d="M29.9483 89.6591C24.9537 89.6591 20.8906 85.6247 20.8906 80.6671C20.8906 75.7088 24.9537 71.6751 29.9483 71.6751C34.9428 71.6751 39.0059 75.7088 39.0059 80.6671C39.0059 85.6247 34.9428 89.6591 29.9483 89.6591Z" fill="#D0F1FF"/>
<path d="M39.0059 80.6671C39.0059 75.7088 34.9428 71.6751 29.9482 71.6751V89.6591C34.9428 89.6591 39.0059 85.6247 39.0059 80.6671Z" fill="#BBE7FF"/>
<path d="M81.2847 60.5972C70.1375 60.5972 61.0684 69.6007 61.0684 80.6671C61.0684 91.7336 70.1375 100.736 81.2847 100.736C92.4319 100.736 101.5 91.7336 101.5 80.6671C101.5 69.6007 92.4319 60.5972 81.2847 60.5972Z" fill="#837AC1"/>
<path d="M101.502 80.6671C101.502 69.6007 92.4324 60.5972 81.2852 60.5972V100.737C92.4324 100.736 101.502 91.7336 101.502 80.6671Z" fill="#200F9C"/>
<path d="M81.2852 89.6591C76.2906 89.6591 72.2275 85.6247 72.2275 80.6671C72.2275 75.7088 76.2906 71.6751 81.2852 71.6751C86.2797 71.6751 90.3428 75.7088 90.3428 80.6671C90.3428 85.6247 86.2797 89.6591 81.2852 89.6591Z" fill="#D0F1FF"/>
<path d="M90.3428 80.6671C90.3428 75.7088 86.2797 71.6751 81.2852 71.6751V89.6591C86.2797 89.6591 90.3428 85.6247 90.3428 80.6671Z" fill="#BBE7FF"/>
</g>
<defs>
<clipPath id="clip0">
<rect width="100.73" height="100" fill="white" transform="translate(0.847656 0.888062)"/>
</clipPath>
</defs>
</svg>
