<svg width="57" height="101" viewBox="0 0 57 101" fill="none" xmlns="http://www.w3.org/2000/svg">
<path d="M20.8764 13.0608L2.89767 34.0415C1.52111 35.6479 0.771484 37.6415 0.771484 39.696V90.7212C0.771484 96.2122 5.25334 100.664 10.7818 100.664H46.2176C51.7462 100.664 56.228 96.2122 56.228 90.7212V39.696C56.228 37.6415 55.4784 35.6479 54.1019 34.0415L36.1227 13.0608C32.1256 8.39639 24.8735 8.39639 20.8764 13.0608Z" fill="#837AC1"/>
<path d="M54.1021 34.0411L36.1232 13.0604C34.1246 10.7282 31.3123 9.56201 28.5 9.56201V100.663H46.2178C51.7464 100.663 56.2283 96.2118 56.2283 90.7208V39.6956C56.2283 37.6411 55.4787 35.6476 54.1021 34.0411Z" fill="#200F9C"/>
<path d="M31.4461 71.5579C29.4497 70.8265 27.5813 70.0329 26.8686 69.7247C26.8089 69.655 26.755 69.5419 26.7809 69.3628C26.8295 69.0269 27.1361 68.7507 27.6218 68.6054C29.5887 68.0169 31.488 69.4052 31.6834 69.554C32.778 70.747 34.6387 70.8366 35.8442 69.7517C37.0512 68.6652 37.143 66.8124 36.0491 65.6134L35.4733 65.0628C34.6375 64.365 33.2063 63.506 31.45 63.0103V61.3273C31.45 59.7093 30.1293 58.3976 28.5002 58.3976C26.8712 58.3976 25.5505 59.7093 25.5505 61.3273V63.1191C23.0532 64.0025 21.3005 66.0435 20.9412 68.5302C20.5849 70.996 21.6617 73.3685 23.7519 74.7218C23.8823 74.8062 24.019 74.8802 24.1612 74.9431C24.2628 74.988 26.6818 76.0575 29.4044 77.055C30.5582 77.4777 31.2764 78.0788 31.1914 78.5509C31.0911 79.1089 30.2439 79.8818 28.9142 79.8818C27.3998 79.8818 25.9501 79.2837 25.0361 78.2822C23.9421 77.0833 22.0769 76.9919 20.8692 78.0786C19.6622 79.1652 19.5706 81.0179 20.6643 82.2169C21.9677 83.6452 23.6636 84.6829 25.5505 85.249V86.9913C25.5505 88.6093 26.8712 89.921 28.5002 89.921C30.1293 89.921 31.45 88.6093 31.45 86.9913V85.3874C34.3113 84.5628 36.4976 82.371 36.9991 79.5812C37.4874 76.865 36.285 73.3308 31.4461 71.5579Z" fill="#FFB0B0"/>
<path d="M31.446 71.5579C30.3733 71.1649 29.3395 70.7546 28.5 70.4106V76.7175C28.7958 76.83 29.098 76.9431 29.4044 77.0554C30.5581 77.478 31.2761 78.0792 31.1914 78.5513C31.0911 79.1093 30.2439 79.8821 28.9141 79.8821C28.7753 79.8821 28.6375 79.8755 28.5 79.8655V89.921H28.5002C30.1292 89.921 31.4499 88.6093 31.4499 86.9913V85.3874C34.3112 84.5628 36.4976 82.371 36.999 79.5811C37.4873 76.8649 36.285 73.3308 31.446 71.5579Z" fill="#FFB0B0"/>
<path d="M28.5 68.464C30.1218 68.4079 31.5172 69.428 31.6834 69.5542C32.7779 70.7472 34.6386 70.8368 35.8441 69.7519C37.0511 68.6653 37.143 66.8126 36.049 65.6136L35.4732 65.063C34.6373 64.3651 33.2062 63.5062 31.45 63.0105V61.3275C31.45 59.7095 30.1293 58.3978 28.5002 58.3978H28.5V68.464Z" fill="#FFB0B0"/>
<path d="M25.5498 37.365V3.5929C25.5498 1.97493 26.8705 0.663208 28.4996 0.663208C30.1286 0.663208 31.4493 1.97493 31.4493 3.5929V37.365C31.4493 38.9829 25.5498 38.9829 25.5498 37.365Z" fill="#FFB0B0"/>
<path d="M28.5 0.663208V38.5784C29.9749 38.5784 31.4498 38.174 31.4498 37.365V3.5929C31.4498 1.97493 30.1291 0.663208 28.5 0.663208Z" fill="#FFB0B0"/>
<path d="M28.4996 52.0134C23.6202 52.0134 19.6504 48.0706 19.6504 43.2243C19.6504 38.378 23.62 34.4352 28.4996 34.4352C33.3793 34.4352 37.3489 38.378 37.3489 43.2243C37.3489 48.0706 33.3793 52.0134 28.4996 52.0134ZM28.4996 40.2946C26.8732 40.2946 25.5499 41.6089 25.5499 43.2243C25.5499 44.8397 26.873 46.154 28.4996 46.154C30.1263 46.154 31.4494 44.8397 31.4494 43.2243C31.4494 41.6089 30.1263 40.2946 28.4996 40.2946Z" fill="#FFB0B0"/>
<path d="M28.5 34.4352V40.2946C30.1267 40.2946 31.4498 41.6089 31.4498 43.2243C31.4498 44.8397 30.1267 46.154 28.5 46.154V52.0134C33.3797 52.0134 37.3493 48.0706 37.3493 43.2243C37.3493 38.378 33.3797 34.4352 28.5 34.4352Z" fill="#FFB0B0"/>
</svg>
