<svg width="101" height="101" viewBox="0 0 101 101" fill="none" xmlns="http://www.w3.org/2000/svg">
<g clip-path="url(#clip0)">
<path d="M97.6182 0.978027H56.8238C55.2059 0.978027 53.8941 2.28975 53.8941 3.90771C53.8941 5.75576 52.3959 7.254 50.5479 7.254C48.6998 7.254 47.2016 5.75576 47.2016 3.90771C47.2016 2.28975 45.8898 0.978027 44.2719 0.978027H3.47754C1.85957 0.978027 0.547852 2.28975 0.547852 3.90771V98.0483C0.547852 99.6663 1.85957 100.978 3.47754 100.978H44.2719C45.8898 100.978 47.2016 99.6663 47.2016 98.0483C47.2016 96.2003 48.6998 94.702 50.5479 94.702C52.3959 94.702 53.8941 96.2003 53.8941 98.0483C53.8941 99.6663 55.2059 100.978 56.8238 100.978H97.6182C99.2361 100.978 100.548 99.6663 100.548 98.0483V3.90771C100.548 2.28975 99.2361 0.978027 97.6182 0.978027Z" fill="#837AC1"/>
<path d="M53.8941 98.0483C53.8941 99.6663 55.2059 100.978 56.8238 100.978H97.6182C99.2361 100.978 100.548 99.6663 100.548 98.0483V3.90771C100.548 2.28975 99.2361 0.978027 97.6182 0.978027H56.8238C55.2059 0.978027 53.8941 2.28975 53.8941 3.90771C53.8941 5.75576 52.3959 7.254 50.5479 7.254V94.7019C52.3959 94.702 53.8941 96.2003 53.8941 98.0483Z" fill="#200F9C"/>
<path d="M56.8236 22.5274H44.2715C42.6535 22.5274 41.3418 21.2157 41.3418 19.5978V3.90771C41.3418 2.28975 42.6535 0.978027 44.2715 0.978027H56.8236C58.4416 0.978027 59.7533 2.28975 59.7533 3.90771V19.5978C59.7533 21.2159 58.4416 22.5274 56.8236 22.5274Z" fill="#FFB0B0"/>
<path d="M56.8236 100.978H44.2715C42.6535 100.978 41.3418 99.6663 41.3418 98.0483V82.3583C41.3418 80.7403 42.6535 79.4286 44.2715 79.4286H56.8236C58.4416 79.4286 59.7533 80.7403 59.7533 82.3583V98.0483C59.7533 99.6663 58.4416 100.978 56.8236 100.978Z" fill="#FFB0B0"/>
<path d="M56.8236 69.5978H44.2715C42.6535 69.5978 41.3418 68.2861 41.3418 66.6681V35.288C41.3418 33.6701 42.6535 32.3583 44.2715 32.3583H56.8236C58.4416 32.3583 59.7533 33.6701 59.7533 35.288V66.6683C59.7533 68.2863 58.4416 69.5978 56.8236 69.5978Z" fill="#FFB0B0"/>
<path d="M59.7535 19.5978V3.90771C59.7535 2.28975 58.4418 0.978027 56.8238 0.978027H50.5479V22.5274H56.8238C58.4418 22.5274 59.7535 21.2159 59.7535 19.5978Z" fill="#F97777"/>
<path d="M59.7535 98.0483V82.3583C59.7535 80.7403 58.4418 79.4286 56.8238 79.4286H50.5479V100.978H56.8238C58.4418 100.978 59.7535 99.6663 59.7535 98.0483Z" fill="#F97777"/>
<path d="M59.7535 66.6681V35.288C59.7535 33.6701 58.4418 32.3583 56.8238 32.3583H50.5479V69.598H56.8238C58.4418 69.5978 59.7535 68.2863 59.7535 66.6681Z" fill="#F97777"/>
</g>
<defs>
<clipPath id="clip0">
<rect width="100" height="100" fill="white" transform="translate(0.547852 0.978027)"/>
</clipPath>
</defs>
</svg>
